<svg width="52" height="52" viewBox="0 0 52 52" fill="none" xmlns="http://www.w3.org/2000/svg">
<rect width="52" height="52" rx="26" fill="black"/>
<rect width="24.96" height="24.96" transform="translate(13.52 13.52)" fill="black"/>
<path d="M35.652 32.681C35.2903 33.5167 34.8621 34.2859 34.366 34.9932C33.6898 35.9573 33.1361 36.6247 32.7094 36.9953C32.0479 37.6036 31.3392 37.9151 30.5803 37.9329C30.0354 37.9329 29.3784 37.7778 28.6136 37.4633C27.8462 37.1503 27.1411 36.9953 26.4963 36.9953C25.82 36.9953 25.0948 37.1503 24.319 37.4633C23.5421 37.7778 22.9162 37.9417 22.4377 37.958C21.7099 37.989 20.9845 37.6686 20.2604 36.9953C19.7983 36.5922 19.2202 35.9012 18.5278 34.9223C17.7848 33.8769 17.174 32.6647 16.6954 31.2827C16.1829 29.79 15.926 28.3445 15.926 26.9451C15.926 25.342 16.2724 23.9594 16.9662 22.8008C17.5115 21.8702 18.2369 21.1361 19.1448 20.5972C20.0527 20.0582 21.0337 19.7836 22.0901 19.766C22.6682 19.766 23.4262 19.9449 24.3682 20.2963C25.3075 20.6488 25.9107 20.8276 26.1751 20.8276C26.3728 20.8276 27.0429 20.6186 28.1787 20.2018C29.2529 19.8152 30.1595 19.6552 30.9021 19.7182C32.9146 19.8806 34.4265 20.6739 35.432 22.1032C33.6322 23.1937 32.7419 24.7212 32.7596 26.6806C32.7758 28.2069 33.3295 29.477 34.4177 30.4854C34.9108 30.9535 35.4616 31.3152 36.0743 31.5721C35.9414 31.9575 35.8012 32.3266 35.652 32.681ZM31.0365 14.5186C31.0365 15.7148 30.5995 16.8318 29.7283 17.8656C28.6771 19.0947 27.4055 19.8049 26.0266 19.6928C26.009 19.5493 25.9988 19.3983 25.9988 19.2395C25.9988 18.0911 26.4988 16.8621 27.3866 15.8572C27.8298 15.3484 28.3936 14.9253 29.0772 14.5878C29.7593 14.2554 30.4046 14.0715 31.0114 14.04C31.0291 14.2 31.0365 14.3599 31.0365 14.5186V14.5186Z" fill="white"/>
</svg>