<svg width="375" height="531" viewBox="0 0 375 531" fill="none" xmlns="http://www.w3.org/2000/svg">
<path d="M177.729 193.991C190.063 193.991 200.062 184.112 200.062 171.926C200.062 159.739 190.063 149.86 177.729 149.86C165.396 149.86 155.397 159.739 155.397 171.926C155.397 184.112 165.396 193.991 177.729 193.991Z" fill="#E6ECF6"/>
<path d="M177.73 189.118C187.339 189.118 195.129 181.421 195.129 171.926C195.129 162.432 187.339 154.735 177.73 154.735C168.12 154.735 160.33 162.432 160.33 171.926C160.33 181.421 168.12 189.118 177.73 189.118Z" fill="#F5FDFB"/>
<path d="M185.577 180.212C185.443 180.212 185.308 180.167 185.219 180.079L178.044 172.989C177.505 172.458 177.192 171.705 177.192 170.951V160.849C177.192 160.539 177.416 160.317 177.73 160.317C178.044 160.317 178.268 160.539 178.268 160.849V170.951C178.268 171.439 178.447 171.926 178.806 172.281L185.981 179.37C186.205 179.591 186.205 179.902 185.981 180.123C185.846 180.167 185.712 180.212 185.577 180.212Z" fill="#B3C1D5"/>
<path d="M179.837 171.527C179.837 172.812 178.761 173.875 177.46 173.875C176.16 173.875 175.084 172.812 175.084 171.527C175.084 170.242 176.16 169.179 177.46 169.179C178.806 169.179 179.837 170.242 179.837 171.527Z" fill="#B3C1D5"/>
<path d="M370.47 515.291H323.686C322.809 515.291 322.123 514.575 322.123 513.746C322.123 512.88 322.847 512.201 323.686 512.201H343.437C344.885 512.201 346.182 511.636 347.135 510.695C348.088 509.753 348.66 508.472 348.66 507.04C348.66 504.177 346.296 501.841 343.398 501.841H329.939C327.956 501.841 326.355 500.259 326.355 498.3C326.355 496.341 327.956 494.759 329.939 494.759H358.612C359.794 494.759 360.823 494.307 361.624 493.516C362.387 492.762 362.882 491.707 362.882 490.54C362.882 488.242 360.976 486.358 358.65 486.358H26.5094C25.3275 486.358 24.298 486.81 23.4973 487.601C22.7347 488.355 22.239 489.409 22.239 490.577C22.239 492.875 24.1455 494.759 26.4713 494.759H59.6053C61.588 494.759 63.1894 496.341 63.1894 498.3C63.1894 500.259 61.588 501.841 59.6053 501.841H39.092C37.6431 501.841 36.3467 502.407 35.3935 503.348C34.4402 504.29 33.8683 505.571 33.8683 507.003C33.8683 509.866 36.2323 512.201 39.1301 512.201H78.2122C79.0891 512.201 79.7755 512.917 79.7755 513.746C79.7755 514.612 79.051 515.291 78.2122 515.291H60.9398C60.2154 515.291 59.5672 515.592 59.0715 516.044C58.6139 516.496 58.3089 517.174 58.3089 517.89C58.3089 519.322 59.4909 520.489 60.9398 520.489H107.038C108.105 520.489 108.982 521.356 108.982 522.411C108.982 523.39 108.22 524.219 107.228 524.294H106.847H96.4378C95.4846 524.294 94.6457 524.671 94.0357 525.274C93.4256 525.877 93.0443 526.705 93.0443 527.647C93.0443 529.493 94.5695 531 96.4378 531H198.699C199.653 531 200.491 530.623 201.102 530.021C201.712 529.418 202.093 528.589 202.093 527.647C202.093 525.801 200.568 524.294 198.699 524.294H185.659H185.278C184.287 524.181 183.524 523.39 183.524 522.411C183.524 521.356 184.401 520.489 185.469 520.489H239.574C240.641 520.489 241.518 521.356 241.518 522.411C241.518 523.39 240.756 524.219 239.764 524.294H239.383H231.071C230.118 524.294 229.279 524.671 228.669 525.274C228.059 525.877 227.677 526.705 227.677 527.647C227.677 529.493 229.202 531 231.071 531H300.618C301.571 531 302.41 530.623 303.02 530.021C303.63 529.418 304.011 528.589 304.011 527.647C304.011 525.801 302.486 524.294 300.618 524.294H294.555H294.174C293.183 524.181 292.42 523.39 292.42 522.411C292.42 521.356 293.297 520.489 294.365 520.489H370.508C371.232 520.489 371.881 520.188 372.376 519.736C372.834 519.284 373.139 518.606 373.139 517.89C373.101 516.421 371.919 515.291 370.47 515.291Z" fill="#E6ECF6"/>
<path d="M283.46 512.314H235.532C233.015 512.314 230.956 513.821 230.956 515.667C230.956 517.513 233.015 519.02 235.532 519.02H283.46C285.976 519.02 288.035 517.513 288.035 515.667C288.035 513.784 286.014 512.314 283.46 512.314Z" fill="#B3C1D5"/>
<path d="M103.072 510.996H55.1061C52.5896 510.996 50.5306 512.503 50.5306 514.349C50.5306 516.195 52.5896 517.702 55.1061 517.702H103.034C105.551 517.702 107.61 516.195 107.61 514.349C107.648 512.465 105.589 510.996 103.072 510.996Z" fill="#B3C1D5"/>
<path d="M285.889 190.314H266.841C265.91 190.314 265.198 189.662 265.198 188.809V186.302C265.198 185.449 265.91 184.797 266.841 184.797H285.889C286.819 184.797 287.531 185.449 287.531 186.302V188.809C287.531 189.612 286.819 190.314 285.889 190.314Z" fill="#E6ECF6"/>
<path d="M348.234 198.589H329.186C328.255 198.589 327.543 197.937 327.543 197.084V194.577C327.543 193.724 328.255 193.072 329.186 193.072H348.234C349.164 193.072 349.876 193.724 349.876 194.577V197.084C349.876 197.887 349.164 198.589 348.234 198.589Z" fill="#E6ECF6"/>
<path d="M55.1155 425.235C52.4243 424.982 50.028 423.315 48.1847 420.416C44.535 414.656 43.7608 404.909 45.5304 400.308C48.2216 393.315 58.5072 395.634 58.9496 395.743L58.3597 398.098L58.6546 396.902L58.3597 398.098C58.286 398.062 49.7699 396.141 47.8529 401.141C46.3414 405.127 47.0787 414.003 50.2861 419.112C51.687 421.358 53.4197 422.59 55.3367 422.772L55.1155 425.235Z" fill="#B3C1D5"/>
<path d="M83.3181 394.403V427.373C83.3181 427.409 83.3181 427.446 83.3181 427.482C83.2444 429.076 81.9172 430.344 80.2951 430.344H56.7746C55.1525 430.344 53.7885 429.076 53.7516 427.482C53.7516 427.446 53.7516 427.409 53.7516 427.373V394.403C53.7516 392.772 55.1156 391.432 56.7746 391.432H80.2951C81.9541 391.432 83.3181 392.772 83.3181 394.403Z" fill="#E6ECF6"/>
<path d="M80.0003 384.946H57.0328C55.2263 384.946 53.7148 386.395 53.7148 388.207C53.7148 389.982 55.1895 391.467 57.0328 391.467H80.0003C81.8067 391.467 83.3182 390.018 83.3182 388.207C83.3182 386.395 81.8436 384.946 80.0003 384.946Z" fill="#B3C1D5"/>
<path d="M341.048 428.351C340.79 428.351 340.532 428.315 340.274 428.279L340.532 426.975C341.638 427.192 342.67 426.721 343.481 425.67C345.103 423.569 345.619 419.764 344.882 418.207C344.624 417.663 343.407 416.54 338.099 418.134C337.804 418.207 337.73 418.243 337.619 418.243V416.902C337.546 416.902 337.509 416.902 337.472 416.902C337.509 416.902 337.582 416.866 337.693 416.83C342.338 415.453 345.177 415.707 346.098 417.627C347.02 419.547 346.541 423.931 344.55 426.467C343.592 427.699 342.375 428.351 341.048 428.351Z" fill="#E6ECF6"/>
<path d="M334.633 431.322L331.979 431.286C328.513 431.25 325.748 428.496 325.748 425.09L325.822 416.684C325.822 415.271 327.002 414.148 328.44 414.184L338.467 414.257C339.905 414.257 341.048 415.416 341.011 416.829L340.937 425.235C340.9 428.605 338.098 431.322 334.633 431.322Z" fill="#E6ECF6"/>
<path d="M361.177 371.649H266.689C265.473 371.649 264.477 370.671 264.477 369.475V368.46C264.477 367.265 265.473 366.287 266.689 366.287H361.177C362.393 366.287 363.389 367.265 363.389 368.46V369.475C363.389 370.707 362.43 371.649 361.177 371.649Z" fill="#E6ECF6"/>
<path opacity="0.44" d="M159.888 332.12H191.077L205.491 353.351V439.329H159.888V332.12Z" fill="#E6ECF6"/>
<path d="M293.748 227.52H158.671C157.012 227.52 155.648 228.86 155.648 230.491V437.626C155.648 439.257 157.012 440.597 158.671 440.597H293.712C295.371 440.597 296.735 439.257 296.735 437.626V230.491C296.771 228.86 295.407 227.52 293.748 227.52ZM292.163 433.17C292.163 434.8 290.799 436.141 289.14 436.141H163.317C161.658 436.141 160.294 434.8 160.294 433.17V234.983C160.294 233.353 161.658 232.012 163.317 232.012H289.14C290.799 232.012 292.163 233.353 292.163 234.983V433.17V433.17Z" fill="#E6ECF6"/>
<path d="M199.703 266.071H167.151C165.528 266.071 164.201 264.766 164.201 263.172V238.245C164.201 236.651 165.528 235.346 167.151 235.346H199.703C201.325 235.346 202.652 236.651 202.652 238.245V263.172C202.652 264.766 201.325 266.071 199.703 266.071Z" fill="#E6ECF6"/>
<path d="M242.615 266.07H210.063C208.44 266.07 207.113 264.765 207.113 263.171V238.244C207.113 236.65 208.44 235.345 210.063 235.345H242.615C244.237 235.345 245.565 236.65 245.565 238.244V263.171C245.565 264.765 244.274 266.07 242.615 266.07Z" fill="#E6ECF6"/>
<path d="M285.564 266.07H253.012C251.389 266.07 250.062 264.765 250.062 263.171V238.244C250.062 236.65 251.389 235.345 253.012 235.345H285.564C287.186 235.345 288.513 236.65 288.513 238.244V263.171C288.513 264.765 287.186 266.07 285.564 266.07Z" fill="#E6ECF6"/>
<path d="M199.703 299.946H167.15C165.528 299.946 164.201 298.642 164.201 297.048V272.12C164.201 270.526 165.528 269.222 167.15 269.222H199.703C201.325 269.222 202.652 270.526 202.652 272.12V297.048C202.652 298.642 201.325 299.946 199.703 299.946Z" fill="#E6ECF6"/>
<path d="M242.615 299.946H210.063C208.441 299.946 207.113 298.642 207.113 297.048V272.12C207.113 270.526 208.441 269.222 210.063 269.222H242.615C244.237 269.222 245.565 270.526 245.565 272.12V297.048C245.565 298.642 244.274 299.946 242.615 299.946Z" fill="#E6ECF6"/>
<path d="M285.564 299.946H253.012C251.39 299.946 250.062 298.642 250.062 297.048V272.12C250.062 270.526 251.39 269.222 253.012 269.222H285.564C287.186 269.222 288.514 270.526 288.514 272.12V297.048C288.514 298.642 287.186 299.946 285.564 299.946Z" fill="#E6ECF6"/>
<path d="M291.758 306.178H160.257V310.091H291.758V306.178Z" fill="#E6ECF6"/>
<path d="M257.804 387.264C256.993 385.996 256.514 386.431 256.256 387.337C256.367 385.127 256.219 382.409 255.15 380.779C253.086 377.627 251.279 383.569 251.279 383.569C251.279 383.569 252.459 378.424 250.8 374.366C249.141 370.308 246.671 375.996 246.671 375.996C246.671 375.996 247.666 363.062 243.832 361.975C239.998 360.888 239.261 367.989 239.261 367.989C239.261 367.989 235.242 362.011 229.454 357.736C223.666 353.46 222.45 358.75 225.584 364.728C226.689 366.83 228.385 368.17 230.081 369.04C227.906 368.967 225.952 369.583 225.62 371.975C225.178 375.38 231.998 377.119 237.454 377.989C235.353 378.061 233.62 378.677 233.768 380.453C233.952 382.518 237.676 383.714 241.436 384.402C240.182 384.619 239.371 385.235 239.777 386.54C240.625 389.402 246.597 390.924 250.247 391.576C247.887 391.358 245.086 391.54 246.081 393.75C247.74 397.409 257.251 397.083 257.251 397.083C257.251 397.083 259.758 390.308 257.804 387.264Z" fill="#55B262"/>
<path d="M261.085 389.257C261.085 389.257 253.27 377.808 254.302 362.518C255.334 347.228 268.68 328.533 274.32 334.076C279.961 339.656 276.385 349.257 271.15 363.17C265.915 377.083 261.085 389.257 261.085 389.257Z" fill="#7DC683"/>
<path d="M264.624 425.452C264.588 425.235 260.274 404.547 254.007 391.141C247.74 377.772 228.127 361.794 227.906 361.649C227.759 361.54 227.759 361.359 227.869 361.214C227.98 361.069 228.164 361.069 228.312 361.178C228.496 361.323 248.219 377.409 254.56 390.888C258.763 399.801 262.044 411.938 263.813 419.148C262.118 405.308 258.689 372.518 262.228 361.323C266.763 346.975 271.703 343.134 271.924 342.989C272.071 342.881 272.256 342.917 272.366 343.062C272.477 343.207 272.44 343.388 272.293 343.497C272.256 343.533 267.279 347.446 262.818 361.54C258.357 375.707 265.177 424.909 265.251 425.38L264.624 425.452Z" fill="#264C4C"/>
<path d="M276.347 419.981C275.573 419.981 274.836 420.126 274.136 420.38C273.546 417.119 270.818 414.655 267.573 414.655C265.472 414.655 263.592 415.669 262.375 417.264C261.933 416.974 261.417 416.72 260.937 416.539C260.937 416.43 260.937 416.322 260.937 416.213C260.937 413.097 259.057 410.452 256.403 409.51C256.219 405.778 253.306 402.771 249.693 402.771C247.15 402.771 244.901 404.293 243.795 406.539C242.91 406.068 241.878 405.814 240.809 405.814C237.638 405.814 235.021 408.133 234.283 411.213C234.21 411.213 234.173 411.213 234.099 411.213C230.412 411.213 227.389 414.401 227.389 418.314C227.389 419.474 227.648 420.561 228.127 421.539C226.578 422.843 225.583 424.836 225.583 427.119C225.583 431.032 228.569 434.22 232.293 434.22C233.73 434.22 235.058 433.749 236.127 432.916C237.38 433.749 238.818 434.22 240.403 434.22C241.472 434.22 242.468 434.003 243.389 433.604C245.085 434.691 247.076 435.307 249.214 435.307C252.938 435.307 256.256 433.387 258.357 430.452C258.541 430.452 258.689 430.488 258.873 430.488C260.974 430.488 262.855 429.474 264.071 427.879C265.103 428.532 266.283 428.93 267.573 428.93C268.348 428.93 269.085 428.785 269.785 428.532C270.375 431.792 273.103 434.256 276.347 434.256C280.034 434.256 283.057 431.068 283.057 427.155C283.057 423.242 280.034 419.981 276.347 419.981Z" fill="#398E77"/>
<path d="M245.675 426.141C245.049 426.141 244.422 426.25 243.832 426.431C243.316 423.931 241.067 422.011 238.376 422.011C236.643 422.011 235.095 422.808 234.063 424.04C233.694 423.822 233.288 423.641 232.846 423.496C232.846 423.424 232.846 423.315 232.846 423.243C232.846 420.851 231.261 418.822 229.086 418.061C228.938 415.163 226.505 412.88 223.519 412.88C221.381 412.88 219.537 414.04 218.616 415.779C217.878 415.417 217.03 415.199 216.146 415.199C213.528 415.199 211.353 416.975 210.763 419.366C210.726 419.366 210.653 419.366 210.616 419.366C207.556 419.366 205.049 421.83 205.049 424.837C205.049 425.743 205.27 426.576 205.639 427.301C204.349 428.315 203.537 429.837 203.537 431.576C203.537 434.583 206.044 437.047 209.104 437.047C210.284 437.047 211.39 436.684 212.312 436.069C213.344 436.684 214.56 437.047 215.851 437.047C216.736 437.047 217.583 436.866 218.321 436.576C219.722 437.409 221.381 437.88 223.15 437.88C226.247 437.88 229.012 436.395 230.708 434.148C230.855 434.148 231.003 434.148 231.113 434.148C232.846 434.148 234.394 433.351 235.427 432.119C236.274 432.627 237.27 432.916 238.339 432.916C238.966 432.916 239.592 432.808 240.182 432.627C240.698 435.127 242.947 437.047 245.638 437.047C248.698 437.047 251.205 434.583 251.205 431.576C251.205 428.569 248.772 426.141 245.675 426.141Z" fill="#7DC683"/>
<path d="M343.333 246.505H305.914C305.067 246.505 304.403 247.157 304.403 247.99V300.816C304.403 301.649 305.067 302.301 305.914 302.301H343.333C344.181 302.301 344.845 301.649 344.845 300.816V247.99C344.845 247.157 344.145 246.505 343.333 246.505ZM342.154 297.084C342.154 297.917 341.49 298.57 340.642 298.57H308.606C307.758 298.57 307.094 297.917 307.094 297.084V251.722C307.094 250.889 307.758 250.237 308.606 250.237H340.605C341.453 250.237 342.117 250.889 342.117 251.722V297.084H342.154Z" fill="#E6ECF6"/>
<path d="M328.44 283.751H320.772C319.15 283.751 317.822 282.447 317.822 280.853V267.918C317.822 266.324 319.15 265.02 320.772 265.02H328.477C330.099 265.02 331.426 266.324 331.426 267.918V280.853C331.389 282.483 330.099 283.751 328.44 283.751Z" fill="#B3C1D5"/>
<path d="M98.5436 249.838H44.793C43.9451 249.838 43.2815 250.49 43.2815 251.323V288.098C43.2815 288.932 43.9451 289.584 44.793 289.584H98.5436C99.3915 289.584 100.055 288.932 100.055 288.098V251.323C100.055 250.526 99.3547 249.838 98.5436 249.838ZM96.2579 285.453C96.2579 286.287 95.5943 286.939 94.7464 286.939H48.5902C47.7423 286.939 47.0787 286.287 47.0787 285.453V254.005C47.0787 253.171 47.7423 252.519 48.5902 252.519H94.7464C95.5943 252.519 96.2579 253.171 96.2579 254.005V285.453Z" fill="#E6ECF6"/>
<path d="M62.1199 273.497V265.925C62.1199 264.331 63.447 263.026 65.0692 263.026H78.2303C79.8524 263.026 81.1796 264.331 81.1796 265.925V273.497C81.1796 275.091 79.8524 276.396 78.2303 276.396H65.0692C63.447 276.396 62.1199 275.091 62.1199 273.497Z" fill="#E6ECF6"/>
<path d="M141.05 311.106H46.5622C45.3456 311.106 44.3502 310.128 44.3502 308.932V307.918C44.3502 306.722 45.3456 305.744 46.5622 305.744H141.05C142.266 305.744 143.262 306.722 143.262 307.918V308.932C143.262 310.128 142.266 311.106 141.05 311.106Z" fill="#E6ECF6"/>
<path d="M62.1199 358.75V308.678C62.1199 308.207 62.5254 307.809 63.0047 307.809H69.4931C69.9723 307.809 70.3779 308.207 70.3779 308.678C70.3779 309.149 69.9723 309.548 69.4931 309.548H65.6959C65.2166 309.548 64.8111 309.946 64.8111 310.417V358.75C64.8111 359.221 64.4056 359.62 63.9263 359.62H63.0415C62.5254 359.62 62.1199 359.221 62.1199 358.75Z" fill="#B3C1D5"/>
<path d="M62.5621 355.888C63.4837 355.417 64.6266 355.815 64.9952 356.757C67.3178 362.953 64.7003 370.018 58.6174 373.207C52.5345 376.431 45.1245 374.656 41.143 369.33C40.5162 368.496 40.8112 367.337 41.7328 366.866L62.5621 355.888Z" fill="#E6ECF6"/>
<path d="M96.9944 339.113C95.5567 339.113 94.377 337.953 94.377 336.54V310.381C94.377 308.968 95.5567 307.809 96.9944 307.809C98.4322 307.809 99.6119 308.968 99.6119 310.381V336.54C99.6119 337.953 98.4322 339.113 96.9944 339.113Z" fill="#B3C1D5"/>
<path d="M97.4002 376.178C109.393 376.178 119.114 366.623 119.114 354.837C119.114 343.051 109.393 333.497 97.4002 333.497C85.4079 333.497 75.6862 343.051 75.6862 354.837C75.6862 366.623 85.4079 376.178 97.4002 376.178Z" fill="#B3C1D5"/>
<path d="M102.565 367.087C109.45 364.284 112.719 356.527 109.868 349.761C107.016 342.994 99.1226 339.781 92.2377 342.584C85.3529 345.387 82.0835 353.144 84.9354 359.91C87.7872 366.677 95.6804 369.89 102.565 367.087Z" fill="#E6ECF6"/>
<path d="M108.892 356.669C109.922 350.427 105.609 344.546 99.2585 343.533C92.9076 342.52 86.9236 346.759 85.8929 353C84.8622 359.242 89.1751 365.123 95.526 366.136C101.877 367.149 107.861 362.91 108.892 356.669Z" fill="#B3C1D5"/>
<path d="M103.115 360.236C96.6631 360.236 91.465 355.091 91.465 348.786C91.465 347.301 91.7599 345.888 92.276 344.583C88.4051 346.431 85.7507 350.344 85.7507 354.873C85.7507 361.214 90.9857 366.322 97.4004 366.322C102.34 366.322 106.543 363.315 108.239 359.076C106.691 359.801 104.958 360.236 103.115 360.236Z" fill="#879EC6"/>
<path d="M348.495 485.923H41.5116C38.2674 485.923 35.613 483.314 35.613 480.126V436.177C35.613 432.989 38.2674 430.38 41.5116 430.38H348.495C351.739 430.38 354.393 432.989 354.393 436.177V480.126C354.393 483.314 351.739 485.923 348.495 485.923Z" fill="#E6ECF6"/>
<path d="M352.882 427.373H37.1245C36.2766 427.373 35.613 428.025 35.613 428.859C35.613 429.692 36.2766 430.344 37.1245 430.344H352.845C353.693 430.344 354.356 429.692 354.356 428.859C354.393 428.061 353.693 427.373 352.882 427.373Z" fill="#B3C1D5"/>
<path d="M94.3037 485.924H43.7236C42.1015 485.924 40.7743 484.619 40.7743 483.025V438.931C40.7743 437.337 42.1015 436.033 43.7236 436.033H94.3037C95.9258 436.033 97.253 437.337 97.253 438.931V483.025C97.253 484.619 95.9258 485.924 94.3037 485.924Z" fill="white"/>
<path d="M156.939 485.924H106.359C104.737 485.924 103.41 484.619 103.41 483.025V438.931C103.41 437.337 104.737 436.033 106.359 436.033H156.939C158.561 436.033 159.888 437.337 159.888 438.931V483.025C159.888 484.619 158.561 485.924 156.939 485.924Z" fill="white"/>
<path d="M219.574 485.924H168.994C167.372 485.924 166.045 484.619 166.045 483.025V438.931C166.045 437.337 167.372 436.033 168.994 436.033H219.574C221.197 436.033 222.524 437.337 222.524 438.931V483.025C222.524 484.619 221.197 485.924 219.574 485.924Z" fill="white"/>
<path d="M282.209 485.924H231.629C230.007 485.924 228.68 484.619 228.68 483.025V438.931C228.68 437.337 230.007 436.033 231.629 436.033H282.209C283.832 436.033 285.159 437.337 285.159 438.931V483.025C285.159 484.619 283.832 485.924 282.209 485.924Z" fill="white"/>
<path d="M344.845 485.924H294.265C292.643 485.924 291.316 484.619 291.316 483.025V438.931C291.316 437.337 292.643 436.033 294.265 436.033H344.845C346.467 436.033 347.794 437.337 347.794 438.931V483.025C347.794 484.619 346.467 485.924 344.845 485.924Z" fill="white"/>
<path d="M86.5622 460.996C88.0689 460.996 89.2903 459.795 89.2903 458.314C89.2903 456.834 88.0689 455.633 86.5622 455.633C85.0555 455.633 83.8341 456.834 83.8341 458.314C83.8341 459.795 85.0555 460.996 86.5622 460.996Z" fill="#B3C1D5"/>
<path d="M208.109 458.206C208.109 459.619 206.929 460.778 205.491 460.778C204.054 460.778 202.874 459.619 202.874 458.206C202.874 456.793 204.054 455.633 205.491 455.633C206.929 455.67 208.109 456.793 208.109 458.206Z" fill="#B3C1D5"/>
<path d="M77.087 483.858C77.087 483.858 66.8752 482.228 67.9074 477.046C68.9397 471.865 79.9994 473.278 79.7783 472.228C79.5571 471.177 76.7921 469.945 78.6354 469.655C80.4787 469.365 86.8934 469.547 85.8611 470.851C84.8289 472.191 83.7966 471.467 84.8289 472.191C85.8611 472.916 91.2436 472.481 93.4924 477.046C95.7781 481.575 92.8657 484.365 77.087 483.858Z" fill="#C43F52"/>
<path d="M48.1476 472.916C48.1476 472.916 43.8343 461.866 44.1293 464.981C44.4242 468.097 46.6361 467.808 42.9127 465.779C39.1892 463.75 38.4888 464.981 39.8159 466.25C41.1431 467.554 39.521 465.199 36.3874 465.923C33.2538 466.648 32.8114 467.192 34.3598 467.88C35.9081 468.568 39.4104 468.786 39.4104 468.786C39.4104 468.786 35.0971 469.148 36.7929 469.655C38.4888 470.163 40.8482 469.583 40.8482 469.583C40.8482 469.583 38.5256 470.344 40.1109 470.489C41.6961 470.634 42.4334 470.199 43.9081 470.09C45.3827 469.981 46.0094 470.416 46.8205 471.612C47.6315 472.807 47.6315 472.807 47.6315 472.807L48.1476 472.916Z" fill="#55B262"/>
<path d="M43.6502 470.814C42.7654 470.887 44.0188 471.865 44.2031 472.01C43.9819 471.829 41.77 470.235 39.7055 470.814C37.4935 471.43 36.3507 472.408 37.4198 472.517C37.7147 472.553 38.0097 472.517 38.3046 472.445C37.3461 472.916 36.2401 473.604 35.9452 474.292C35.429 475.488 35.2816 476.974 36.9405 476.177C38.5626 475.379 40.9221 473.495 40.9221 473.495C40.9221 473.495 39.4843 475.017 40.7009 474.8C41.9175 474.582 43.7976 473.568 43.7976 473.568C43.7976 473.568 43.3184 473.894 44.1294 473.966C44.9405 474.039 45.0879 472.046 46.3045 472.445C47.4842 472.843 48.8483 473.35 48.8483 473.35L49.2169 473.133C49.18 473.097 44.6087 470.742 43.6502 470.814Z" fill="#398E77"/>
<path d="M81.8429 480.38C80.9213 480.742 71.7048 481.322 52.5713 476.721C52.5713 476.721 47.1152 476.25 47.4101 473.279C47.705 470.271 49.1059 469.8 53.493 471.395C54.1934 471.648 54.9676 471.902 55.7418 472.192C56.2211 472.373 56.7003 472.518 57.2164 472.699C58.175 473.061 59.2072 473.424 60.3132 473.786C60.6819 473.895 61.0505 474.04 61.4192 474.148C62.3408 474.438 63.2993 474.764 64.2947 475.09C64.7002 475.235 65.1426 475.344 65.585 475.489C67.4652 476.068 69.5297 476.721 71.8154 477.373C80.1471 479.8 82.7277 480.018 81.8429 480.38Z" fill="#FBAE61"/>
<path d="M55.7417 472.191C56.2209 472.373 56.7002 472.517 57.2163 472.699C56.7739 473.242 56.2947 473.894 55.8154 474.583C55.1887 475.597 55.4467 473.713 55.7417 472.191Z" fill="#F18256"/>
<path d="M60.3134 473.786C60.682 473.895 61.0507 474.04 61.4194 474.148C60.977 474.656 60.5714 475.163 60.2765 475.308C59.8341 475.634 60.0553 474.728 60.3134 473.786Z" fill="#F18256"/>
<path d="M65.5852 475.524C65.1796 475.959 64.811 476.285 64.5898 476.394C64.258 476.575 64.2211 475.923 64.2948 475.126C64.7004 475.271 65.1428 475.38 65.5852 475.524Z" fill="#F18256"/>
<path d="M46.4148 479.8C46.4148 479.8 39.2628 467.952 40.2213 471.467C41.1799 474.981 43.6499 474.256 38.9679 472.626C34.2859 470.996 33.7329 472.553 35.5394 473.785C37.3458 475.017 34.9864 472.626 31.5578 474.039C28.1293 475.452 27.6869 476.213 29.6408 476.684C31.5578 477.155 35.6131 476.756 35.6131 476.756C35.6131 476.756 30.7099 477.988 32.7744 478.242C34.8389 478.495 37.4195 477.372 37.4195 477.372C37.4195 477.372 34.9126 478.677 36.7559 478.568C38.5992 478.423 39.3734 477.771 41.0324 477.372C42.6914 477.01 43.5024 477.336 44.6821 478.568C45.8618 479.8 45.8618 479.8 45.8618 479.8H46.4148Z" fill="#55B262"/>
<path d="M40.8114 478.243C39.7791 478.496 41.4381 479.366 41.6593 479.511C41.3643 479.366 38.5257 477.953 36.24 479.003C33.8437 480.127 32.7377 481.467 33.9543 481.395C34.2861 481.359 34.6547 481.25 34.9497 481.105C33.9543 481.83 32.8114 482.844 32.6271 483.677C32.2953 485.163 32.4059 486.866 34.1386 485.634C35.8713 484.402 38.157 481.793 38.157 481.793C38.157 481.793 36.793 483.822 38.157 483.351C39.521 482.88 41.4381 481.322 41.4381 481.322C41.4381 481.322 40.9588 481.793 41.9173 481.721C42.8758 481.648 42.6547 479.33 44.0924 479.547C45.5302 479.801 47.1892 480.09 47.1892 480.09L47.5578 479.764C47.6316 479.801 41.9173 477.989 40.8114 478.243Z" fill="#398E77"/>
<path d="M86.5252 481.829C85.5666 482.409 75.0967 484.872 52.2766 483.314C52.2766 483.314 45.9357 483.858 45.6776 480.343C45.3827 476.865 46.9311 476.032 52.2766 477.01C53.1614 477.155 54.0462 477.336 55.0047 477.481C55.5946 477.59 56.1844 477.698 56.7743 477.807C57.954 478.025 59.2075 478.242 60.5346 478.459C60.977 478.532 61.4194 478.604 61.8618 478.677C62.9678 478.858 64.1106 479.039 65.3641 479.22C65.8802 479.293 66.3963 479.365 66.9124 479.438C69.1981 479.764 71.6682 480.054 74.4331 480.38C84.4607 481.503 87.4837 481.249 86.5252 481.829Z" fill="#F18256"/>
<path d="M54.9678 477.517C55.5576 477.626 56.1475 477.734 56.7374 477.843C56.3687 478.532 55.8894 479.401 55.5208 480.271C55.0047 481.503 54.9309 479.329 54.9678 477.517Z" fill="#C43F52"/>
<path d="M60.5347 478.459C60.9771 478.531 61.4195 478.604 61.8619 478.676C61.4564 479.365 61.0877 479.981 60.7928 480.234C60.3135 480.633 60.3873 479.582 60.5347 478.459Z" fill="#C43F52"/>
<path d="M66.9124 479.438C66.5069 480.017 66.1751 480.452 65.9539 480.633C65.6221 480.923 65.4377 480.162 65.364 479.22C65.8433 479.293 66.3594 479.365 66.9124 479.438Z" fill="#C43F52"/>
<path d="M199.261 293.353C199.261 293.353 199.556 296.505 197.492 296.903C196.128 297.157 194.284 293.244 193.178 290.599C192.994 289.729 192.699 288.932 192.257 288.172C192.036 287.809 191.814 287.483 191.556 287.157C186.063 280.527 178.616 281.759 178.616 281.759C178.616 281.759 174.082 276.36 158.524 280.128C157.345 280.418 156.202 280.853 155.17 281.432L155.059 281.143C154.912 281.179 141.308 286.106 137.437 296.251C135.815 300.49 136.847 305.744 140.386 311.468C141.087 312.628 141.861 313.679 142.561 314.621C142.819 316.179 143.225 317.338 143.778 317.954C147.649 322.265 144.331 326.07 144.331 326.07L146.801 324.657C146.801 324.657 147.059 327.012 145.29 328.751C143.483 330.49 139.796 326.794 139.796 326.794C139.796 326.794 140.497 328.352 143.667 331.323C146.838 334.294 151.999 331.323 151.999 331.323L185.768 322.265C185.768 322.265 191.814 320.381 190.303 314.294C189.824 312.338 190.34 309.512 191.077 306.36C193.252 309.295 196.496 307.302 200.146 303.425C205.049 298.316 199.261 293.353 199.261 293.353ZM142.451 313.352C139.28 308.932 135.852 302.302 138.064 296.469C141.05 288.643 150.008 284.005 153.695 282.374C144.773 288.715 141.677 304.983 142.451 313.352Z" fill="#19213F"/>
<path d="M188.533 302.084C188.533 302.084 190.377 309.476 188.533 313.461C186.69 317.41 187.39 319.947 186.985 322.881C186.579 325.816 181.713 336.287 179.98 336.468C178.211 336.686 173.16 336.178 172.017 337.591C170.874 339.004 170.469 344.983 173.05 347.845C175.63 350.671 176.404 350.925 176.404 350.925C176.404 350.925 172.865 356.468 167.888 357.156C162.948 357.881 155.096 359.294 152.183 357.156C149.308 355.019 142.672 343.28 142.672 343.28C142.672 343.28 148.865 344.077 150.524 341.251C152.183 338.425 152.294 330.816 151.778 328.86C151.262 326.939 151.262 323.28 152.921 324.294C154.58 325.309 156.644 321.649 155.206 320.019C153.769 318.389 152.11 317.592 150.856 314.222C149.603 310.889 154.69 306.722 157.787 308.86C160.884 310.997 160.073 315.852 161.105 314.548C162.137 313.244 161.4 307.447 163.907 306.215C166.377 304.983 171.87 304.983 174.34 302.773C176.81 300.526 177.326 299.947 177.326 299.947C177.326 299.947 172.976 304.222 175.778 304.802C178.543 305.418 187.833 301.07 188.533 302.084Z" fill="#F79E86"/>
<path d="M174.745 336.613C174.745 336.613 169.437 336.649 167.704 336.142C165.934 335.635 159.667 333.207 158.709 331.287C157.787 329.366 157.676 327.845 157.676 327.845C157.676 327.845 157.05 331.685 160.478 339.729C163.87 347.736 169.99 352.845 169.473 350.345C168.92 347.808 168.073 335.671 174.745 336.613Z" fill="#C43F52"/>
<path d="M172.644 312.228C172.423 313.46 171.648 314.366 170.874 314.221C170.137 314.076 169.695 312.989 169.916 311.757C170.137 310.526 170.911 309.62 171.685 309.765C172.459 309.91 172.865 310.997 172.644 312.228Z" fill="#19213F"/>
<path d="M184.146 315.381C183.925 316.613 183.151 317.519 182.377 317.374C181.64 317.229 181.197 316.142 181.418 314.91C181.64 313.678 182.414 312.773 183.188 312.918C183.962 313.026 184.368 314.149 184.146 315.381Z" fill="#19213F"/>
<path d="M176.478 323.932C176.367 323.932 176.294 323.895 176.22 323.823C176.109 323.678 176.146 323.497 176.294 323.388C177.105 322.808 177.695 322.12 177.658 321.939C177.215 321.359 176.478 319.982 176.22 319.113C175.925 318.171 177.4 316.54 177.695 316.214C177.805 316.105 177.99 316.069 178.137 316.178C178.248 316.287 178.284 316.468 178.174 316.613C177.547 317.265 176.699 318.461 176.847 318.895C177.105 319.692 177.805 320.997 178.211 321.54C178.764 322.265 177.363 323.388 176.736 323.859C176.625 323.895 176.552 323.932 176.478 323.932Z" fill="#C43F52"/>
<path d="M176.22 330.054C175.704 330.054 175.114 330.018 174.414 329.909C171.427 329.438 170.358 326.902 170.321 326.793C170.248 326.648 170.321 326.467 170.506 326.394C170.653 326.322 170.838 326.394 170.911 326.576C170.911 326.612 171.907 328.894 174.561 329.329C177.215 329.764 178.211 329.148 178.211 329.112C178.358 329.003 178.543 329.039 178.653 329.184C178.764 329.329 178.727 329.51 178.579 329.619C178.469 329.619 177.805 330.054 176.22 330.054Z" fill="#C43F52"/>
<path d="M169.842 308.099C170.579 307.809 171.354 307.664 172.165 307.736C172.57 307.773 172.57 307.157 172.165 307.12C171.317 307.048 170.469 307.193 169.658 307.519C169.326 307.664 169.473 308.244 169.842 308.099Z" fill="#19213F"/>
<path d="M183.335 310.779C184.035 310.816 184.662 311.178 184.994 311.758C185.215 312.084 185.731 311.794 185.547 311.468C185.068 310.707 184.257 310.236 183.335 310.2C182.93 310.164 182.93 310.779 183.335 310.779Z" fill="#19213F"/>
<path d="M141.787 343.207C141.787 343.207 144.589 343.135 145.179 344.475C145.806 345.78 144.368 351.069 156.534 353.098C168.7 355.127 173.345 349.041 175.815 349.838C178.285 350.635 163.207 390.598 158.783 394.076C154.359 397.518 135.373 390.018 135.152 389.402C134.967 388.787 141.787 343.207 141.787 343.207Z" fill="#E6ECF6"/>
<path d="M240.219 357.736C240.219 357.736 243.758 355.816 244.274 354.004C244.791 352.192 244.791 352.192 244.791 352.192C244.791 352.192 249.546 354.33 251.5 353.098C253.454 351.866 257.472 343.569 257.472 343.569C257.472 343.569 261.307 349.548 258.8 353.823C256.33 358.098 252.311 358.388 250.947 359.62C249.62 360.852 246.081 364.801 246.081 364.801L240.219 357.736Z" fill="#F79E86"/>
<path d="M249.104 366.685C247.667 369.946 229.713 393.46 215.888 404.837C202.063 416.214 193.805 418.641 190.303 415.779C186.801 412.953 183.299 403.605 183.299 403.605L182.488 412.735C182.488 412.735 166.193 401.359 167.004 392.446C167.151 390.852 167.446 388.352 167.889 385.344C169.806 371.576 174.303 347.156 178.359 350.635C178.359 350.635 194.874 354.692 196.091 357.519C197.344 360.345 197.934 393.641 201.031 393.424C204.128 393.207 221.86 377.591 227.87 369.294C233.842 360.961 236.939 355.888 238.819 356.903C240.662 357.953 250.579 363.424 249.104 366.685Z" fill="#E6ECF6"/>
<g opacity="0.35">
<path opacity="0.35" d="M183.262 403.605L182.451 412.735C182.451 412.735 166.156 401.359 166.967 392.446C167.114 390.851 167.409 388.351 167.852 385.344C167.852 385.344 172.976 395.09 176.257 398.315C179.575 401.576 180.165 383.569 180.165 383.569L183.262 403.605Z" fill="#5674B8"/>
</g>
<path d="M181.197 425.018C180.939 428.859 180.902 433.605 181.308 439.547C182.524 457.953 183.262 483.315 183.262 483.315H115.907C115.907 483.315 119.004 443.75 118.709 427.337C118.672 425.2 118.672 423.026 118.709 420.924C118.82 414.33 119.189 408.171 119.594 403.461C119.815 400.707 120.073 398.461 120.221 396.939C120.368 395.562 120.479 394.801 120.479 394.801C120.589 394.62 128.479 383.642 132.018 373.823C135.483 364.258 137.658 344.113 137.806 342.918C137.806 342.881 137.806 342.845 137.806 342.845C137.806 342.845 144.147 341.07 143.852 342.845C143.594 344.621 136.847 375.164 140.276 381.396C143.704 387.627 155.833 392.772 161.326 383.569C166.819 374.367 170.838 352.809 173.713 349.838C176.589 346.903 179.206 349.657 179.354 349.838C179.501 350.019 168.331 381.794 169.031 388.569C169.732 395.345 175.225 400.2 177.99 402.772C180.755 405.345 183.483 405.49 183.298 409.946C183.151 412.953 181.713 417.047 181.197 425.018Z" fill="#36445E"/>
<path d="M135.667 422.627C135.667 422.627 147.096 426.721 155.649 426.141C164.202 425.525 164.202 425.525 164.202 425.525C164.202 425.525 166.672 451.974 162.358 455.489C158.008 459.003 133.271 458.098 131.723 454.112C130.138 450.163 132.202 421.504 135.667 422.627Z" fill="#5F7392"/>
<g opacity="0.57">
<path opacity="0.57" d="M115.907 483.314C115.907 483.314 119.004 443.75 118.709 427.337C118.672 425.199 118.672 423.025 118.709 420.924C118.82 414.33 119.189 408.17 119.594 403.46C119.815 400.707 120.073 398.46 120.221 396.938C120.221 396.938 127.041 405.815 133.419 405.634C139.76 405.453 143.483 408.17 144.921 410.453C146.359 412.735 147.833 428.858 146.285 428.569C144.737 428.279 125.861 427.953 125.861 431.322C125.861 434.655 156.055 433.75 164.939 433.75C173.824 433.75 180.681 422.627 180.681 422.627C180.681 422.627 180.865 423.496 181.197 425.054C180.939 428.895 180.902 433.641 181.308 439.583C182.524 457.952 183.262 483.314 183.262 483.314H115.907Z" fill="#18202D"/>
</g>
<path d="M258.984 346.831C258.984 346.831 258.136 349.765 256.662 350.925C255.224 352.084 250.726 356.142 249.915 355.852C249.104 355.599 244.754 352.157 244.754 352.157C244.754 352.157 258.468 344.802 258.984 346.831Z" fill="#C43F52"/>
<path d="M264.956 327.338C264.956 327.338 261.638 318.135 258.505 315.019C255.334 311.903 252.459 310.961 252.459 310.961L247.814 317.12C247.814 317.12 249.989 328.28 255.629 329.511C261.233 330.707 264.956 327.338 264.956 327.338Z" fill="#FBAE61"/>
<path d="M244.791 352.156C244.791 352.156 231.224 348.678 232.478 347.446C233.731 346.214 237.27 336.613 238.598 330.671C239.925 324.729 238.782 314.729 240.257 314.983C241.731 315.236 255.777 318.896 259.685 322.41C263.593 325.925 264.957 326.468 264.957 327.265C264.957 328.062 257.51 343.497 257.51 343.497C257.51 343.497 252.717 353.751 251.095 354.113C249.399 354.511 244.791 352.156 244.791 352.156Z" fill="#FBD97A"/>
<path d="M256.699 348.244C256.699 348.244 253.27 350.309 254.376 344.222C255.482 338.135 256.809 335.925 257.878 336.505C258.948 337.084 259.574 337.338 260.533 341.396C261.454 345.454 258.616 348.135 256.699 348.244Z" fill="#F79E86"/>
<path d="M243.058 336.033C243.058 336.033 241.621 328.207 243.87 325.562C246.155 322.917 247.667 327.193 249.252 326.794C250.837 326.395 252.238 326.106 252.902 327.338C253.565 328.569 253.565 328.28 255.851 329.04C258.137 329.765 257.805 332.301 256.883 334.113C255.998 335.924 251.316 340.997 250.69 340.997C250.1 340.997 243.132 339.765 243.058 336.033Z" fill="#FBAE61"/>
<path d="M242.616 339.149C242.616 339.149 250.247 341.649 250.1 342.881C249.952 344.113 249.178 344.403 248.146 344.258C247.113 344.113 241.473 341.323 241.473 340.997C241.473 340.671 242.21 339.041 242.616 339.149Z" fill="#F18256"/>
<path d="M246.782 337.7C246.782 337.7 250.284 328.28 251.132 328.787C251.943 329.367 246.855 340.526 246.782 337.7Z" fill="#F18256"/>
<path d="M245.786 337.519C245.786 337.519 247.887 328.243 246.966 327.301C246.081 326.359 245.307 326.83 245.233 328.642C245.196 330.49 244.533 339.004 245.786 337.519Z" fill="#F18256"/>
<path d="M248.662 338.606C248.662 338.606 254.818 330.997 255.445 332.265C256.072 333.533 247.888 340.236 248.662 338.606Z" fill="#F18256"/>
<path d="M116.202 453.967C113.474 453.967 110.525 452.663 108.645 450.598C107.06 448.859 106.47 446.757 106.986 444.764C108.165 440.054 113.769 440.525 115.87 440.706C116.129 440.743 116.35 440.743 116.46 440.743V441.757C116.313 441.757 116.092 441.757 115.797 441.721C112.626 441.467 108.866 441.612 107.981 445.018C107.576 446.685 108.055 448.424 109.419 449.909C111.299 452.011 114.47 453.243 117.124 452.916L117.271 453.931C116.903 453.967 116.571 453.967 116.202 453.967Z" fill="#36445E"/>
<path d="M181.676 453.967C184.404 453.967 187.354 452.663 189.234 450.598C190.819 448.859 191.409 446.757 190.893 444.764C189.713 440.054 184.109 440.525 182.008 440.706C181.75 440.743 181.529 440.743 181.418 440.743V441.757C181.566 441.757 181.787 441.757 182.082 441.721C185.252 441.467 189.013 441.612 189.897 445.018C190.303 446.685 189.824 448.424 188.46 449.909C186.579 452.011 183.409 453.243 180.755 452.916L180.607 453.931C180.976 453.967 181.344 453.967 181.676 453.967Z" fill="#36445E"/>
<path d="M140.829 410.452C140.718 408.895 139.981 407.626 138.064 406.829C134.635 405.416 126.045 404.583 119.557 403.46C114.912 402.663 111.336 401.684 111.483 400.199C111.889 396.684 116.866 383.279 117.935 386.54C119.041 389.8 120.405 394.8 120.405 394.8C120.516 394.619 128.405 383.641 131.944 373.822C135.409 364.257 137.585 344.112 137.732 342.917C133.898 342.772 128.11 342.844 124.386 344.366C120.331 346.033 117.308 350.67 114.912 354.076C111.483 358.931 108.718 364.402 105.142 369.076C102.783 372.156 100.682 375.453 98.654 378.75C94.4513 385.525 88.6634 393.496 87.0044 401.395C86.9307 401.793 86.8201 402.228 86.8201 402.663C86.8201 408.206 91.7601 413.061 95.4836 415.09C97.4375 416.141 108.387 419.076 118.599 420.923C127.926 422.626 136.626 423.496 137.29 421.286C137.474 420.706 137.695 420.054 137.99 419.365C139.243 416.539 141.013 413.134 140.829 410.452Z" fill="#E6ECF6"/>
<path d="M185.842 440.634L181.271 471.249L180.829 474.293C180.607 475.851 179.022 477.047 177.142 477.047H121.474C119.631 477.047 118.046 475.887 117.788 474.329L112.037 440.67C112 440.489 112 440.344 112 440.163C112.037 438.46 113.659 437.047 115.723 437.047H182.156C184.405 437.047 186.137 438.714 185.842 440.634Z" fill="#E6ECF6"/>
<path d="M150.451 424.33C150.451 424.33 145.953 389.185 144.22 383.279C142.525 377.374 136.626 379.04 135.778 382.7C134.93 386.359 139.76 395.381 140.976 402.736C142.193 410.091 146.727 436.975 146.727 436.975L152.589 437.083L150.451 424.33ZM141.603 389.076C140.423 389.221 139.28 387.953 139.059 386.214C138.801 384.475 139.575 382.917 140.718 382.772C141.898 382.627 143.041 383.895 143.262 385.634C143.52 387.41 142.783 388.931 141.603 389.076Z" fill="#FBD97A"/>
<path d="M150.561 425.091L147.17 421.141C147.17 421.141 144.7 423.062 142.635 421.141C141.382 419.982 139.428 419.547 138.101 419.402C139.28 416.54 141.013 413.134 140.829 410.453C142.709 411.033 146.174 412.265 147.796 413.823C150.082 416.069 151.63 416.54 151.704 418.46C151.815 420.381 150.561 425.091 150.561 425.091Z" fill="#F79E86"/>
<path d="M174.487 480.38H121.916C121.105 480.38 120.442 481.032 120.442 481.829V481.865C120.442 482.662 121.105 483.315 121.916 483.315H174.487C175.298 483.315 175.962 482.662 175.962 481.865V481.829C175.962 481.032 175.298 480.38 174.487 480.38Z" fill="#E6ECF6"/>
<path d="M128.442 480.379L130.101 477.01H135.041L134.377 480.379H128.442Z" fill="#B3C1D5"/>
<path d="M168.22 480.379L166.561 477.01H161.621L162.285 480.379H168.22Z" fill="#B3C1D5"/>
<path d="M156.755 478.713H138.912C138.506 478.713 138.175 479.039 138.175 479.438V479.655C138.175 480.054 138.506 480.38 138.912 480.38H156.755C157.161 480.38 157.492 480.054 157.492 479.655V479.438C157.492 479.039 157.161 478.713 156.755 478.713Z" fill="#879EC6"/>
<path opacity="0.44" d="M181.271 471.213L180.829 474.257C180.607 475.815 179.022 477.01 177.142 477.01H121.474C119.631 477.01 118.046 475.851 117.788 474.293L112.037 440.634C112 440.453 112 440.308 112 440.126C115.576 453.025 125.419 471.177 152.589 471.177H181.271V471.213Z" fill="#B3C1D5"/>
<path d="M371.278 484.8V485.814H23.2629V484.8C23.2629 483.967 23.9265 483.314 24.7744 483.314H369.766C370.614 483.314 371.278 484.003 371.278 484.8Z" fill="#B3C1D5"/>
<path d="M328.771 387.518C327.518 394.511 320.55 412.953 320.698 422.554C320.845 432.155 326.559 451.394 327.076 463.061C327.334 469.329 327.334 474.727 327.26 478.35C327.186 481.466 327.076 483.314 327.076 483.314H259.205C259.205 483.314 260.238 454.184 262.339 440.452C262.486 439.583 262.597 438.749 262.744 437.952C264.367 429.257 266.763 424.909 267.353 420.163C267.574 418.496 267.537 416.793 267.205 414.873C266.91 413.206 266.468 411.612 265.989 409.982C265.841 409.402 265.657 408.858 265.473 408.279C263.85 402.699 262.486 396.576 266.468 385.96C267.5 383.17 268.79 380.38 270.191 377.591C276.274 365.924 285.638 355.453 296.256 354.584C296.477 354.547 296.735 354.547 296.956 354.547C310.412 354.04 320.624 353.315 320.624 353.315C320.624 353.315 321.656 353.352 323.131 353.714C326.154 354.475 331.057 356.576 332.716 362.446C335.297 371.214 330.025 380.525 328.771 387.518Z" fill="#E6ECF6"/>
<path d="M336.882 301.831C330.32 300.635 327.149 304.947 326.007 307.085C326.633 304.621 328.292 299.041 330.283 297.266C332.9 294.947 335.186 293.86 335.223 293.86C335.334 293.824 335.407 293.679 335.334 293.57C335.297 293.462 335.149 293.389 335.039 293.462C334.928 293.498 332.642 294.585 329.988 296.94C327.739 298.932 326.043 305.056 325.454 307.338C325.269 303.751 323.868 290.454 312.219 285.708C299.942 280.708 295.297 287.592 294.523 288.896C294.044 288.534 288.846 284.766 282.873 288.896C276.643 293.208 280.588 306.505 280.772 307.048C280.809 307.157 280.883 307.23 280.993 307.23H281.03C281.288 309.077 281.767 310.78 282.283 312.266C281.509 316.07 280.956 321.432 282.689 325.889C284.827 331.396 288.919 332.229 291.205 332.229C292.164 332.229 292.827 332.084 292.827 332.084C292.938 332.048 293.011 331.939 293.011 331.794C292.975 331.686 292.864 331.613 292.717 331.613C292.643 331.613 286.007 333.208 283.095 325.708C281.509 321.613 281.878 316.758 282.578 313.063C284.237 317.266 286.376 319.693 286.376 319.693L311.85 333.389C311.85 333.389 317.417 332.845 320.698 330.454C322.504 329.113 323.758 326.686 324.532 324.512C324.458 326.36 324.79 328.57 326.228 330.49C329.324 334.548 330.136 334.983 330.209 335.019C330.246 335.019 330.283 335.055 330.32 335.055C330.394 335.055 330.467 335.019 330.541 334.91C330.615 334.802 330.541 334.657 330.43 334.621C330.394 334.621 329.619 334.15 326.633 330.237C324.09 326.903 325.269 322.411 325.712 321.034C325.712 321.07 325.748 321.07 325.748 321.106C325.49 322.447 325.306 325.092 327.407 326.903C327.444 326.939 327.518 326.976 327.555 326.976C327.629 326.976 327.702 326.939 327.739 326.903C327.813 326.795 327.813 326.65 327.702 326.577C325.97 325.092 325.933 322.954 326.117 321.65C327.702 323.642 331.684 328.063 336.218 328.063C336.661 328.063 337.066 328.026 337.509 327.954C339.463 327.592 340.827 326.722 341.527 325.454C342.006 324.584 342.117 323.642 342.08 322.845C346.983 318.534 345.435 303.389 336.882 301.831ZM281.067 299.693C280.772 301.759 280.735 303.679 280.883 305.49C280.035 301.867 278.413 292.628 283.205 289.295C287.297 286.469 290.91 287.447 292.864 288.389C288.624 287.049 282.578 289.114 281.067 299.693ZM325.785 320.418L325.748 320.345C325.785 320.345 325.859 320.309 325.933 320.309C325.933 320.345 325.896 320.418 325.859 320.49C325.822 320.454 325.785 320.418 325.785 320.418ZM341.122 325.2C340.495 326.36 339.241 327.121 337.398 327.447C332.421 328.425 327.629 322.809 326.191 320.961C326.265 320.599 326.338 320.418 326.338 320.382C326.338 320.382 326.338 320.382 326.338 320.345C328.919 321.034 337.214 326.106 341.601 323.135C341.638 323.824 341.49 324.548 341.122 325.2Z" fill="#19213F"/>
<path d="M320.698 353.352C320.698 353.352 316.385 354.258 313.14 356.323C309.896 358.388 307.905 361.577 301.159 362.374C294.412 363.171 294.634 359.185 294.634 359.185C294.634 359.185 296.293 356.975 297.694 352.7C297.73 352.627 297.73 352.519 297.767 352.446C299.168 347.99 298.578 339.693 298.578 339.693C298.578 339.693 296.219 340.272 294.486 340.49C293.823 340.562 293.233 340.635 292.901 340.562C291.758 340.345 289.251 336.106 287.297 332.446C286.597 331.142 286.118 329.802 285.823 328.425C285.307 325.997 285.454 323.461 286.118 320.852C287.15 316.794 285.896 314.258 285.638 308.316C285.417 302.374 292.901 296.541 292.901 296.541C292.901 296.541 295.666 301.795 299.131 306.976C302.634 312.157 307.869 312.99 310.302 315.055C312.735 317.121 313.104 314.947 315.316 315.055C317.527 315.164 319.371 317.012 319.518 320.852C319.629 324.693 314.173 326.287 315.795 327.881C317.417 329.475 318.007 329.149 316.938 330.852C315.905 332.555 317.527 336.577 317.159 341.939C317.048 343.461 317.306 345.019 317.675 346.504C318.744 350.236 320.698 353.352 320.698 353.352Z" fill="#F79E86"/>
<path d="M298.615 339.692C298.615 339.692 309.306 336.721 310.597 335.055C311.887 333.424 312.108 328.642 312.108 328.642C312.108 328.642 313.362 334.91 309.638 340.199C305.915 345.453 298.431 349.04 298.431 349.04L298.615 339.692Z" fill="#C43F52"/>
<path d="M304.035 316.939C303.887 316.939 303.74 316.831 303.703 316.722C303.703 316.686 303.334 315.744 301.417 315.345C299.463 314.947 297.878 316.324 297.841 316.324C297.694 316.432 297.473 316.432 297.362 316.287C297.214 316.142 297.251 315.925 297.399 315.816C297.473 315.744 299.279 314.186 301.565 314.657C303.887 315.164 304.367 316.432 304.367 316.468C304.44 316.65 304.33 316.831 304.145 316.903C304.108 316.939 304.072 316.939 304.035 316.939Z" fill="#19213F"/>
<path d="M291.869 316.106C291.758 316.106 291.611 315.998 291.574 315.853C291.574 315.853 291.353 315.201 289.989 314.657C288.625 314.114 288.108 315.092 288.108 315.092C288.035 315.237 287.85 315.309 287.703 315.201C287.555 315.092 287.519 314.875 287.592 314.73C287.629 314.657 288.366 313.28 290.173 314.005C291.869 314.657 292.127 315.563 292.164 315.672C292.201 315.853 292.127 316.034 291.979 316.106C291.906 316.106 291.906 316.106 291.869 316.106Z" fill="#19213F"/>
<path d="M293.712 326.214C293.638 326.214 293.601 326.178 293.564 326.142C293.528 326.105 292.2 324.873 291.574 324.113C291.426 323.931 291.352 323.75 291.389 323.569C291.463 323.134 291.979 322.736 292.643 322.265C293.085 321.975 293.564 321.613 293.97 321.214C295.039 320.163 293.933 318.316 293.933 318.279C293.859 318.171 293.896 318.026 294.007 317.953C294.117 317.881 294.265 317.917 294.339 318.026C294.375 318.098 295.629 320.2 294.302 321.504C293.859 321.939 293.343 322.301 292.901 322.591C292.385 322.953 291.869 323.315 291.832 323.569C291.832 323.605 291.832 323.678 291.905 323.75C292.532 324.475 293.859 325.707 293.859 325.743C293.97 325.815 293.97 325.96 293.859 326.069C293.859 326.178 293.786 326.214 293.712 326.214Z" fill="#C43F52"/>
<path d="M288.071 311.251C288.44 310.961 288.845 310.744 289.288 310.635C289.73 310.526 289.546 309.874 289.104 309.983C288.551 310.128 288.034 310.381 287.592 310.78C287.26 311.034 287.739 311.541 288.071 311.251Z" fill="#19213F"/>
<path d="M299.979 311.033C300.79 311.251 301.564 311.541 302.301 311.975C302.67 312.193 303.039 311.613 302.67 311.396C301.896 310.925 301.048 310.599 300.163 310.381C299.721 310.236 299.536 310.888 299.979 311.033Z" fill="#19213F"/>
<g opacity="0.35">
<path opacity="0.35" d="M331.094 372.591C331.094 372.591 324.606 387.083 312.329 398.678C300.016 410.272 283.647 415.706 281.177 414.873C278.744 414.04 272.108 401.214 272.108 401.214L331.094 372.591Z" fill="#5674B8"/>
</g>
<path d="M272.108 426.395C272.108 426.395 285.011 431.648 290.762 431.177C296.514 430.706 301.343 428.423 301.601 433.46C301.859 438.496 301.454 456.865 295.15 459.8C288.845 462.735 272.588 462.191 272.108 458.93C271.629 455.67 268.864 426.612 272.108 426.395Z" fill="white"/>
<path d="M289.878 343.606C289.288 345.091 288.661 346.396 288.661 346.396L280.551 342.265C280.551 342.265 280.772 341.903 281.067 341.359C284.237 341.251 288.071 342.156 289.878 343.606Z" fill="#F79E86"/>
<path d="M330.172 376.105C327.518 384.91 290.91 405.236 286.818 407.736C282.726 410.236 273.141 411.033 270.007 399.402C266.873 387.772 274.873 346.83 276.274 343.388C276.827 342.048 278.744 341.432 281.03 341.359C284.2 341.251 288.071 342.156 289.878 343.606C290.173 343.823 290.394 344.077 290.578 344.33C292.606 347.338 285.859 384.004 285.749 386.033C285.638 388.098 297.951 379.439 303.555 375.163C309.159 370.924 322.135 360.961 322.135 360.961C333.785 355.888 332.827 367.301 330.172 376.105Z" fill="#36445E"/>
<path d="M323.205 353.787C315.057 353.787 311.223 361.214 307.832 364.547C303.813 368.497 293.085 374.439 290.468 370.96C287.85 367.446 296.329 354.656 296.329 354.656C296.735 353.968 297.177 353.316 297.73 352.736C297.509 353.424 297.288 354.04 297.067 354.62C295.887 357.663 294.67 359.221 294.67 359.221C294.67 359.221 294.449 363.207 301.196 362.41C307.942 361.613 309.933 358.424 313.177 356.359C316.421 354.294 320.735 353.388 320.735 353.388C320.735 353.388 321.73 353.388 323.205 353.787Z" fill="#36445E"/>
<path d="M275.537 453.387L299.905 456.214L299.316 460.199L275.095 456.54C273.989 456.358 273.362 455.163 273.915 454.185C274.21 453.641 274.873 453.315 275.537 453.387Z" fill="#36445E"/>
<g opacity="0.35">
<path opacity="0.35" d="M327.26 478.387C327.186 481.503 327.076 483.35 327.076 483.35H259.205C259.205 483.35 260.238 454.22 262.339 440.489C262.486 439.619 262.597 438.786 262.744 437.989C264.367 429.293 266.726 424.945 267.353 420.199C267.574 418.532 267.537 416.829 267.205 414.909C266.91 413.242 266.468 411.648 265.989 410.018C265.841 409.438 265.657 408.895 265.473 408.315C265.583 408.532 269.196 415.525 279.371 421.395C289.73 427.336 290.91 428.713 287.74 428.931C284.569 429.148 270.818 420.489 275.279 424.8C279.74 429.148 288.145 442.989 286.707 444.075C285.27 445.162 272.735 449.293 272.035 461.756C271.703 467.517 280.883 478.604 293.159 481.43L298.947 460.561L327.112 465.814L322.947 478.387C324.532 478.387 325.97 478.387 327.26 478.387Z" fill="#5674B8"/>
</g>
<path d="M337.14 460.924C335.776 463.098 333.122 465.489 329.103 465.706C321.878 466.032 301.896 464.909 299.905 464.33C299.168 464.112 298.984 462.482 299.021 460.525C299.094 457.119 299.905 452.699 299.905 452.699C299.905 452.699 336.993 456.83 338.062 457.373C338.504 457.627 338.209 459.221 337.14 460.924Z" fill="white"/>
<path d="M337.14 460.923C335.776 463.097 333.122 465.489 329.103 465.706C321.878 466.032 301.896 464.909 299.905 464.329C299.168 464.112 298.984 462.481 299.021 460.525C309.454 462.3 327.039 464.619 335.481 461.503C336.071 461.286 336.587 461.105 337.14 460.923Z" fill="#E6ECF6"/>
<path d="M295.592 461.466C293.859 461.249 288.846 461.684 286.523 459.401C284.201 457.119 281.767 454.039 281.878 451.865C281.952 450.633 280.588 448.749 279.445 447.372C281.325 445.814 283.684 443.749 284.901 441.865C285.565 442.988 286.523 444.51 287.039 445.126C287.85 446.141 288.661 446.612 290.062 447.517C291.463 448.423 293.896 452.083 294.376 454.148C294.781 456.213 297.325 461.72 295.592 461.466Z" fill="#F79E86"/>
<path d="M285.565 439.184C284.938 437.264 273.915 426.721 267.39 420.199C266.357 419.185 265.436 418.243 264.698 417.482C264.698 417.482 263.408 415.199 264.698 413.967C265.989 412.772 266.689 412.264 266.689 412.264L266.062 410.018C264.293 403.931 262.155 397.699 266.579 385.996C267.611 383.207 268.901 380.417 270.302 377.627L270.892 372.591C270.892 372.591 254.708 404.221 251.427 412.011C248.182 419.801 246.339 422.518 248.883 424.8C250.136 425.924 256.404 432.119 262.818 437.989C269.565 444.148 276.422 449.873 277.712 448.822C278.191 448.423 278.781 447.952 279.482 447.409C281.362 445.851 283.721 443.786 284.938 441.902C285.491 440.887 285.823 439.981 285.565 439.184Z" fill="#36445E"/>
<path d="M298.025 332.845C297.841 334.331 295.887 338.026 294.523 340.49C293.86 340.562 293.27 340.635 292.938 340.562C291.795 340.345 289.288 336.106 287.334 332.446C286.634 331.142 286.155 329.802 285.86 328.425C285.86 328.425 287.85 323.606 291.758 325.744C295.666 327.881 296.735 329.077 296.33 329.729C295.924 330.418 298.32 330.49 298.025 332.845Z" fill="#F37A6E"/>
<path d="M294.191 337.338C292.09 338.57 291.168 338.642 290.947 340.382C290.836 341.179 290.394 342.447 289.915 343.606C288.108 342.157 284.237 341.251 281.067 341.36C281.62 340.345 282.468 338.606 282.947 336.94C283.721 334.331 282.615 335.056 284.201 331.541C285.786 328.027 287.703 325.309 289.878 325.816C292.053 326.36 293.896 327.266 294.302 328.679C294.67 330.092 293.896 334.113 294.929 332.954C295.998 331.795 296.624 330.708 296.772 332.012C296.919 333.28 296.293 336.106 294.191 337.338Z" fill="#F79E86"/>
<path d="M356.642 479.474H264.772C263.961 479.474 263.297 480.126 263.297 480.923V481.901C263.297 482.698 263.961 483.35 264.772 483.35H356.642C357.453 483.35 358.117 482.698 358.117 481.901V480.923C358.117 480.09 357.453 479.474 356.642 479.474Z" fill="#36445E"/>
<path d="M279.887 473.894H277.859C277.233 473.894 276.753 474.365 276.753 474.981V478.387C276.753 479.003 277.233 479.474 277.859 479.474H279.887C280.514 479.474 280.993 479.003 280.993 478.387V474.981C280.993 474.365 280.514 473.894 279.887 473.894Z" fill="#FBAE61"/>
<path d="M285.675 473.894H283.648C283.021 473.894 282.542 474.365 282.542 474.981V478.387C282.542 479.003 283.021 479.474 283.648 479.474H285.675C286.302 479.474 286.781 479.003 286.781 478.387V474.981C286.781 474.365 286.302 473.894 285.675 473.894Z" fill="#F18256"/>
<path d="M291.315 473.894H289.288C288.661 473.894 288.182 474.365 288.182 474.981V478.387C288.182 479.003 288.661 479.474 289.288 479.474H291.315C291.942 479.474 292.421 479.003 292.421 478.387V474.981C292.421 474.365 291.942 473.894 291.315 473.894Z" fill="#C43F52"/>
<path d="M296.956 473.894H294.929C294.302 473.894 293.823 474.365 293.823 474.981V478.387C293.823 479.003 294.302 479.474 294.929 479.474H296.956C297.583 479.474 298.062 479.003 298.062 478.387V474.981C298.062 474.365 297.546 473.894 296.956 473.894Z" fill="#C43F52"/>
<path d="M302.559 473.894H300.532C299.905 473.894 299.426 474.365 299.426 474.981V478.387C299.426 479.003 299.905 479.474 300.532 479.474H302.559C303.186 479.474 303.665 479.003 303.665 478.387V474.981C303.665 474.365 303.186 473.894 302.559 473.894Z" fill="#C43F52"/>
<path d="M345.841 473.894H314.283C313.657 473.894 313.177 474.365 313.177 474.981V478.387C313.177 479.003 313.657 479.474 314.283 479.474H345.841C346.468 479.474 346.947 479.003 346.947 478.387V474.981C346.947 474.365 346.468 473.894 345.841 473.894Z" fill="#C43F52"/>
<path d="M238.597 465.488C238.597 465.488 228.864 442.771 237.38 432.445C245.859 422.119 253.011 425.308 253.011 425.308C253.011 425.308 242.173 426.938 239.85 434.402C237.528 441.865 243.721 453.858 243.721 453.858C243.721 453.858 241.546 445.923 244.79 440.018C248.035 434.112 252.348 430.778 252.348 430.778C252.348 430.778 246.634 434.945 246.781 441.286C246.929 447.626 254.339 464.655 254.339 464.655L238.597 465.488Z" fill="#398E77"/>
<path d="M233.03 466.394C233.03 466.394 206.634 422.119 216.367 418.025C226.099 413.931 249.399 463.64 249.399 463.64L233.03 466.394Z" fill="#FBAE61"/>
<path d="M220.791 435.416C220.791 435.416 222.192 426.213 223.335 427.662C224.477 429.075 221.159 442.336 220.791 435.416Z" fill="#F18256"/>
<path d="M225.325 442.3C225.325 442.3 226.726 433.097 227.869 434.546C229.049 435.959 225.731 449.22 225.325 442.3Z" fill="#F18256"/>
<path d="M229.823 449.183C229.823 449.183 231.224 439.98 232.367 441.43C233.51 442.843 230.192 456.103 229.823 449.183Z" fill="#F18256"/>
<path d="M233.915 456.068C233.915 456.068 235.316 446.865 236.459 448.314C237.602 449.764 234.284 462.988 233.915 456.068Z" fill="#F18256"/>
<path d="M264.772 454.836C263.445 454.836 262.265 455.488 261.601 456.503C261.528 456.466 261.417 456.466 261.343 456.43C261.823 455.778 262.081 454.981 262.081 454.148C263.666 453.314 264.772 451.792 264.772 450.017C264.772 447.879 263.15 446.068 260.938 445.452C260.753 443.278 258.689 441.575 256.145 441.575C254.449 441.575 252.975 442.336 252.127 443.459C251.463 443.206 250.726 443.061 249.952 443.061C247.629 443.061 245.638 444.401 244.68 446.322C243.5 446.865 242.689 447.843 242.689 449.003C240.735 449.546 239.334 451.285 239.334 453.387C239.334 454.365 239.666 455.271 240.182 455.995C238.486 456.684 237.307 457.988 237.307 459.51C237.307 461.647 239.592 463.423 242.468 463.495C243.242 464.184 244.201 464.618 245.27 464.618C247.482 464.618 249.362 462.771 249.73 460.343C250.836 461.249 252.274 461.792 253.859 461.792C255.002 461.792 256.108 461.503 257.03 460.995C257.767 461.466 258.763 461.792 259.832 461.792C260.68 461.792 261.454 461.611 262.117 461.321C262.818 461.974 263.74 462.372 264.735 462.372C266.836 462.372 268.532 460.705 268.532 458.64C268.606 456.503 266.91 454.836 264.772 454.836Z" fill="#55B262"/>
<path d="M246.634 460.85C247.666 460.85 248.551 461.357 249.104 462.082C249.177 462.046 249.214 462.046 249.288 462.01C248.919 461.539 248.698 460.959 248.698 460.343C247.445 459.727 246.634 458.604 246.634 457.336C246.634 455.778 247.887 454.437 249.583 454.002C249.73 452.408 251.316 451.14 253.269 451.14C254.56 451.14 255.703 451.684 256.366 452.517C256.882 452.336 257.435 452.227 258.062 452.227C259.869 452.227 261.417 453.205 262.117 454.618C263.039 455.017 263.666 455.742 263.666 456.575C265.177 456.973 266.283 458.242 266.283 459.763C266.283 460.488 266.025 461.14 265.62 461.684C266.947 462.191 267.832 463.133 267.832 464.256C267.832 465.85 266.062 467.118 263.85 467.191C263.26 467.698 262.523 467.988 261.675 467.988C259.942 467.988 258.541 466.647 258.21 464.836C257.362 465.488 256.256 465.886 255.039 465.886C254.154 465.886 253.306 465.669 252.606 465.307C252.053 465.669 251.279 465.886 250.431 465.886C249.767 465.886 249.177 465.741 248.661 465.524C248.145 465.995 247.408 466.285 246.634 466.285C245.012 466.285 243.684 465.053 243.684 463.531C243.684 462.01 245.012 460.85 246.634 460.85Z" fill="#7DC683"/>
<path d="M242.136 461.683C242.136 461.683 238.892 453.821 226.099 447.843C213.307 441.829 209.141 446.974 209.141 446.974C209.141 446.974 217.657 444.075 223.593 448.93C229.528 453.785 233.215 457.408 233.215 457.408C233.215 457.408 223.482 452.553 218.542 453.097C213.602 453.64 210.616 458.241 210.616 458.241C210.616 458.241 217.657 453.423 225.362 457.408C233.067 461.394 231.851 464.292 231.851 464.292L242.136 461.683Z" fill="#398E77"/>
<path d="M270.376 462.155L263.592 480.379L263.039 481.829C262.707 482.734 261.823 483.314 260.864 483.314H242.136H223.408C222.45 483.314 221.565 482.734 221.233 481.829L213.897 462.155C213.418 460.887 214.155 459.582 215.371 459.22C215.593 459.148 215.814 459.111 216.072 459.111H268.237C269.823 459.111 270.928 460.669 270.376 462.155Z" fill="#FBD97A"/>
<path d="M263.592 480.379L263.039 481.828C262.707 482.734 261.823 483.314 260.864 483.314H242.136H223.408C222.45 483.314 221.565 482.734 221.233 481.828L213.897 462.154C213.418 460.886 214.155 459.582 215.371 459.22C218.726 467.408 229.086 480.379 261.048 480.379C261.933 480.379 262.781 480.379 263.592 480.379Z" fill="#FBAE61"/>
<path d="M109.271 269.693C114.748 269.693 119.188 266.027 119.188 261.505C119.188 256.982 114.748 253.316 109.271 253.316C103.794 253.316 99.3544 256.982 99.3544 261.505C99.3544 266.027 103.794 269.693 109.271 269.693Z" fill="#879EC6"/>
<path d="M137.622 267.375C138.838 267.375 139.723 266.215 139.428 265.056C136.221 253.353 123.834 244.658 109.05 244.658C94.2672 244.658 81.8802 253.39 78.6728 265.056C78.3411 266.215 79.2258 267.375 80.4793 267.375H137.622Z" fill="#B3C1D5"/>
<path d="M115.502 246.505H103.041C101.603 246.505 100.46 245.382 100.46 243.969V243.027C100.46 241.614 101.603 240.491 103.041 240.491H115.502C116.939 240.491 118.082 241.614 118.082 243.027V243.969C118.082 245.346 116.903 246.505 115.502 246.505Z" fill="#E6ECF6"/>
<path d="M109.801 0H107.94V239.961H109.801V0Z" fill="#B3C1D5"/>
<path d="M125.552 2.75817H93.1199C92.5652 2.75817 92.1215 2.14525 92.1215 1.37909C92.1215 0.612927 92.5652 0 93.1199 0H125.552C126.107 0 126.551 0.612927 126.551 1.37909C126.551 2.14525 126.107 2.75817 125.552 2.75817Z" fill="#E6ECF6"/>
<path d="M356.679 377.99C356.531 378.171 356.347 378.352 356.163 378.533L355.241 377.555C356.089 376.794 356.31 375.743 355.941 374.439C355.204 371.903 352.365 369.258 350.67 368.896C350.043 368.787 348.421 369.077 346.577 374.222C346.467 374.511 346.43 374.584 346.356 374.693L345.287 373.895C345.25 373.968 345.213 374.004 345.213 374.004C345.213 373.968 345.25 373.895 345.287 373.787C346.909 369.294 348.826 367.193 350.928 367.591C353.066 367.99 356.347 370.961 357.269 374.077C357.674 375.598 357.49 376.939 356.679 377.99Z" fill="#B3C1D5"/>
<path d="M355.315 384.837L353.73 386.939C351.665 389.656 347.72 390.2 344.955 388.171L338.098 383.098C336.955 382.265 336.734 380.671 337.582 379.547L343.591 371.685C344.439 370.562 346.061 370.345 347.204 371.178L354.024 376.214C356.826 378.243 357.379 382.12 355.315 384.837Z" fill="#B3C1D5"/>
<path d="M109.345 482.662C109.124 483.061 108.755 483.315 108.276 483.315H98.5433C97.806 483.315 97.2161 482.626 97.3267 481.865L98.9488 470.561C99.0226 469.945 99.5387 469.474 100.165 469.474H106.617C107.207 469.474 107.723 469.909 107.834 470.489C107.834 470.525 107.834 470.525 107.834 470.561L109.456 481.865C109.529 482.155 109.493 482.445 109.345 482.662Z" fill="white"/>
<path d="M104.847 469.473H101.972C101.419 469.473 101.013 469.039 101.013 468.531C101.013 467.988 101.456 467.589 101.972 467.589H104.847C105.4 467.589 105.806 468.024 105.806 468.531C105.806 469.039 105.4 469.473 104.847 469.473Z" fill="#AAA5C4"/>
<path d="M99.0966 481.503C99.0597 481.503 99.0597 481.503 99.0229 481.503C98.7648 481.466 98.5805 481.249 98.6542 480.995L100.203 471.466C100.239 471.213 100.461 471.068 100.719 471.104C100.977 471.14 101.161 471.358 101.087 471.611L99.539 481.14C99.539 481.321 99.3547 481.503 99.0966 481.503Z" fill="#DDD8EC"/>
<path d="M103.41 481.502C103.151 481.502 102.93 481.285 102.93 481.068V471.539C102.93 471.285 103.151 471.104 103.41 471.104C103.668 471.104 103.889 471.321 103.889 471.539V481.068C103.852 481.285 103.668 481.502 103.41 481.502Z" fill="#DDD8EC"/>
<path d="M107.834 481.503C107.613 481.503 107.428 481.358 107.392 481.14L105.548 471.611C105.511 471.358 105.659 471.14 105.917 471.104C106.175 471.068 106.396 471.213 106.47 471.466L108.313 480.995C108.35 481.249 108.203 481.466 107.945 481.503C107.871 481.503 107.871 481.503 107.834 481.503Z" fill="#DDD8EC"/>
<path d="M203.206 482.662C202.984 483.061 202.616 483.315 202.137 483.315H192.404C191.667 483.315 191.077 482.626 191.187 481.865L192.809 470.561C192.883 469.945 193.399 469.474 194.026 469.474H200.478C201.067 469.474 201.584 469.909 201.694 470.489C201.694 470.525 201.694 470.525 201.694 470.561L203.316 481.865C203.39 482.155 203.353 482.445 203.206 482.662Z" fill="white"/>
<path d="M198.708 469.473H195.833C195.28 469.473 194.874 469.039 194.874 468.531C194.874 467.988 195.317 467.589 195.833 467.589H198.708C199.261 467.589 199.667 468.024 199.667 468.531C199.704 469.039 199.261 469.473 198.708 469.473Z" fill="#AAA5C4"/>
<path d="M192.994 481.503C192.957 481.503 192.957 481.503 192.92 481.503C192.662 481.466 192.478 481.249 192.551 480.995L194.1 471.466C194.137 471.213 194.358 471.068 194.616 471.104C194.874 471.14 195.058 471.358 194.984 471.611L193.436 481.14C193.399 481.321 193.215 481.503 192.994 481.503Z" fill="#DDD8EC"/>
<path d="M197.27 481.502C197.012 481.502 196.791 481.285 196.791 481.068V471.539C196.791 471.285 197.012 471.104 197.27 471.104C197.528 471.104 197.749 471.321 197.749 471.539V481.068C197.749 481.285 197.528 481.502 197.27 481.502Z" fill="#DDD8EC"/>
<path d="M201.694 481.503C201.473 481.503 201.288 481.358 201.252 481.14L199.408 471.611C199.371 471.358 199.519 471.14 199.777 471.104C200.035 471.068 200.256 471.213 200.33 471.466L202.173 480.995C202.21 481.249 202.063 481.466 201.804 481.503C201.768 481.503 201.731 481.503 201.694 481.503Z" fill="#DDD8EC"/>
<path d="M54.1892 177.442H35.1409C34.2104 177.442 33.4988 176.681 33.4988 175.687V172.762C33.4988 171.767 34.2104 171.006 35.1409 171.006H54.1892C55.1197 171.006 55.8313 171.767 55.8313 172.762V175.687C55.8313 176.681 55.1197 177.442 54.1892 177.442Z" fill="#E6ECF6"/>
<path d="M263.556 161.813H244.508C243.578 161.813 242.866 161.052 242.866 160.057V157.132C242.866 156.138 243.578 155.377 244.508 155.377H263.556C264.487 155.377 265.198 156.138 265.198 157.132V160.057C265.198 161.052 264.487 161.813 263.556 161.813Z" fill="#B3C1D5"/>
<path d="M353.817 133.312H334.769C333.838 133.312 333.126 132.551 333.126 131.557V128.631C333.126 127.637 333.838 126.876 334.769 126.876H353.817C354.747 126.876 355.459 127.637 355.459 128.631V131.557C355.459 132.551 354.747 133.312 353.817 133.312Z" fill="#B3C1D5"/>
<path d="M325.901 170.087H306.853C305.923 170.087 305.211 169.327 305.211 168.332V165.407C305.211 164.412 305.923 163.651 306.853 163.651H325.901C326.832 163.651 327.543 164.412 327.543 165.407V168.332C327.543 169.327 326.832 170.087 325.901 170.087Z" fill="#B3C1D5"/>
<path d="M311.013 140.667H291.965C291.034 140.667 290.323 140.015 290.323 139.162V136.655C290.323 135.802 291.034 135.15 291.965 135.15H311.013C311.943 135.15 312.655 135.802 312.655 136.655V139.162C312.655 139.965 311.943 140.667 311.013 140.667Z" fill="#E6ECF6"/>
<path d="M373.358 148.942H354.31C353.379 148.942 352.667 148.29 352.667 147.437V144.93C352.667 144.077 353.379 143.425 354.31 143.425H373.358C374.288 143.425 375 144.077 375 144.93V147.437C375 148.24 374.288 148.942 373.358 148.942Z" fill="#E6ECF6"/>
<path d="M33.6652 193.991H1.69456C0.734309 193.991 0 193.231 0 192.236V189.311C0 188.316 0.734309 187.556 1.69456 187.556H33.6652C34.6255 187.556 35.3598 188.316 35.3598 189.311V192.236C35.3598 193.172 34.6255 193.991 33.6652 193.991Z" fill="#B3C1D5"/>
<path d="M42.9937 205.024H21.2121C20.2651 205.024 19.5409 204.264 19.5409 203.269V200.344C19.5409 199.349 20.2651 198.588 21.2121 198.588H42.9937C43.9408 198.588 44.665 199.349 44.665 200.344V203.269C44.665 204.264 43.9408 205.024 42.9937 205.024Z" fill="#E6ECF6"/>
</svg>
