<svg width="52" height="52" viewBox="0 0 52 52" fill="none" xmlns="http://www.w3.org/2000/svg">
<rect width="52" height="52" rx="26" fill="#1877F2"/>
<path d="M38.2104 26.2191C38.2104 19.556 32.8088 14.1545 26.1457 14.1545C19.4826 14.1545 14.0811 19.556 14.0811 26.2191C14.0811 32.2409 18.4929 37.2321 24.2606 38.1372V29.7066H21.1973V26.2191H24.2606V23.5611C24.2606 20.5374 26.0618 18.8672 28.8176 18.8672C30.1376 18.8672 31.5183 19.1029 31.5183 19.1029V22.0719H29.9969C28.4982 22.0719 28.0308 23.0019 28.0308 23.956V26.2191H31.3769L30.842 29.7066H28.0308V38.1372C33.7985 37.2321 38.2104 32.2409 38.2104 26.2191Z" fill="white"/>
</svg>