<svg width="52" height="52" viewBox="0 0 52 52" fill="none" xmlns="http://www.w3.org/2000/svg">
<rect x="0.52455" y="0.52455" width="50.9509" height="50.9509" rx="25.4755" fill="white" stroke="#D7E6FE" stroke-width="1.0491"/>
<rect width="24.96" height="24.96" transform="translate(13.52 13.52)" fill="white"/>
<path fill-rule="evenodd" clip-rule="evenodd" d="M37.6912 26.3833C37.6912 25.5278 37.6144 24.7052 37.4718 23.9155H26.1091V28.5824H32.6021C32.3224 30.0904 31.4724 31.3682 30.1947 32.2237V35.2508H34.0937C36.3751 33.1505 37.6912 30.0575 37.6912 26.3833Z" fill="#4285F4"/>
<path fill-rule="evenodd" clip-rule="evenodd" d="M26.1091 38.1737C29.3665 38.1737 32.0975 37.0934 34.0937 35.2508L30.1946 32.2237C29.1142 32.9475 27.7323 33.3753 26.1091 33.3753C22.9668 33.3753 20.307 31.253 19.3583 28.4014H15.3276V31.5272C17.3128 35.4702 21.3929 38.1737 26.1091 38.1737Z" fill="#34A853"/>
<path fill-rule="evenodd" clip-rule="evenodd" d="M19.3584 28.4013C19.1171 27.6775 18.98 26.9042 18.98 26.109C18.98 25.3139 19.1171 24.5406 19.3584 23.8168V20.6909H15.3277C14.5106 22.3196 14.0444 24.1622 14.0444 26.109C14.0444 28.0558 14.5106 29.8984 15.3277 31.5272L19.3584 28.4013Z" fill="#FBBC05"/>
<path fill-rule="evenodd" clip-rule="evenodd" d="M26.1091 18.8429C27.8804 18.8429 29.4707 19.4516 30.721 20.6471L34.1814 17.1867C32.092 15.2399 29.361 14.0444 26.1091 14.0444C21.3929 14.0444 17.3128 16.748 15.3276 20.691L19.3583 23.8168C20.307 20.9652 22.9668 18.8429 26.1091 18.8429Z" fill="#EA4335"/>
</svg>