<svg width="141" height="145" viewBox="0 0 141 145" fill="none" xmlns="http://www.w3.org/2000/svg">
<path d="M8.29705 106.605C8.38086 105.598 7.71041 104.927 7.20757 104.172C5.36382 102.662 5.36382 100.397 4.77717 98.2997C4.77717 97.7124 4.77717 97.2091 4.77717 96.6218C3.93911 94.7762 4.35814 92.4273 2.76581 90.8334C1.92775 89.9106 2.26297 88.82 2.17917 87.7294C1.84394 86.3871 1.59252 84.961 1.25729 83.6187C1.08968 83.1993 1.00587 82.8637 1.00587 82.4443C0.754453 80.4309 1.59252 78.4175 0.503033 76.488L0.33542 76.3202L0.503033 76.1525C0.0839995 72.5451 0.167806 68.9378 0.58684 65.4144L0.503033 65.4983C2.01155 63.401 0.33542 60.8004 1.42491 58.6193C2.5982 49.8107 6.62092 42.0927 11.5655 34.8781C12.9064 32.9486 14.3311 31.1869 15.7558 29.3413C16.0911 28.6702 16.5101 28.083 17.1806 27.6635C17.5158 27.4118 17.851 27.0763 18.27 26.8246C19.6948 26.4052 20.1138 27.328 20.3652 28.5024C17.1806 33.1164 15.9235 38.7371 12.236 43.0994C9.72177 43.0156 10.3084 45.7001 8.96751 46.7068C7.54279 47.9651 7.03995 49.4752 7.03995 51.3207C7.03995 51.6563 6.87234 52.0758 6.70473 52.4113C5.61524 53.8375 5.02859 55.5153 4.94479 57.3609C4.69337 59.2065 3.60388 60.9682 3.77149 62.8977C3.77149 63.3171 3.68769 63.7366 3.60388 64.1561C3.52007 69.1895 3.18485 74.3069 3.8553 79.3403C4.44195 81.102 4.10672 83.1154 4.86098 84.8771C5.19621 85.7999 5.53143 86.7227 5.53143 87.7294C5.44763 89.4072 5.86666 91.0011 6.45331 92.5112C6.95615 94.1051 7.45899 95.699 8.12944 97.2091C8.71609 98.5513 9.21893 99.9775 9.72177 101.32C10.2246 102.494 10.8113 103.669 11.3979 104.843C12.3198 106.857 13.3255 108.87 14.6664 110.632C15.672 112.897 18.0186 114.491 17.9348 117.259C17.6834 117.846 17.2644 118.266 16.6777 118.35C12.8226 115.917 12.0684 111.303 9.13512 108.199C8.46467 107.863 8.29705 107.276 8.29705 106.605Z" fill="#1EBC5D"/>
<path d="M29.2483 14.4085C36.6233 7.44556 45.5906 3.50269 55.2284 0.98596C56.8207 -0.0207308 58.7482 1.15374 60.4244 0.230942C71.5707 -0.607967 82.5493 0.818178 93.109 4.84494C94.8689 5.51607 96.7127 6.1872 97.9698 7.78112C99.0592 9.71061 98.3888 10.6334 96.2936 10.8012C95.9584 10.7173 95.6232 10.5495 95.2879 10.2978C95.0365 9.7945 95.4556 8.9556 94.7013 8.62003C93.947 8.28447 93.1928 8.11669 92.3547 7.86501C91.349 7.52945 90.3434 7.19389 89.2539 7.0261C88.6672 6.94221 88.1644 6.77443 87.5777 6.60665C86.153 5.93552 84.7283 5.43218 83.136 5.34829C81.4598 4.92883 79.8675 4.67716 78.1914 4.59327C66.207 3.08323 54.3903 2.83156 43.4954 9.20727C42.1545 9.96229 40.646 10.3817 39.3889 11.2206C38.8861 11.5562 38.2994 11.8079 37.7128 11.9757C35.7014 12.7307 34.1929 14.1568 32.852 15.7508C30.8406 17.5125 29.2483 18.0158 29.2483 14.4085Z" fill="#1EBC5D"/>
<path d="M136.689 54.4238C142.136 71.1181 142.22 87.6446 134.845 103.752C133.001 107.695 130.403 111.302 128.141 114.993C126.129 118.097 124.788 121.872 120.514 122.711C119.676 122.292 119.257 121.62 119.257 120.698C119.509 118.852 121.017 117.761 122.107 116.503C135.516 100.983 139.874 83.1984 135.683 63.1485C135.348 61.4707 135.432 59.7928 134.678 58.1989C134.51 57.6956 134.594 57.1922 134.929 56.6889C135.264 56.1016 135.599 55.5144 135.935 54.9272C136.102 54.7594 136.354 54.5077 136.689 54.4238Z" fill="#1EBC5D"/>
<path d="M91.1819 137.728C92.1876 138.651 94.5342 139.238 91.0143 140.328C86.6563 141.755 82.2146 142.342 77.7728 143.516C75.1748 144.691 72.4092 143.348 69.8112 144.355C68.3865 143.348 67.0456 143.936 65.6209 144.355C63.6095 143.516 61.3467 144.523 59.3354 143.684C58.7487 143.6 58.2459 143.6 57.6592 143.516C56.8212 144.104 56.4021 143.516 55.9831 142.929C55.145 142.258 54.9774 141.671 55.9831 141.083C56.905 140.161 58.0783 140.077 59.2516 140.077C59.922 140.077 60.5925 140.161 61.2629 140.328C65.4533 141.083 69.6436 141 73.9177 140.412C74.3368 140.245 74.7558 140.161 75.1748 140.161C77.1024 139.993 79.0299 140.077 80.8737 139.406C83.1365 139.154 85.3154 138.567 87.4944 137.896C88.8353 137.644 90.0086 137.057 91.1819 137.728Z" fill="#1EBC5D"/>
<path d="M113.809 17.7637C119.089 20.8676 122.022 25.985 125.459 30.7668C126.548 32.3607 127.302 34.2902 128.14 36.0519C128.559 36.9747 128.057 37.5619 127.302 38.0653C126.129 38.2331 125.459 37.3941 124.956 36.6391C121.52 31.5218 117.329 27.0756 112.971 22.7971C112.385 22.2099 111.966 21.4549 111.882 20.616C112.049 19.2737 112.888 18.5187 113.809 17.7637Z" fill="#1EBC5D"/>
<path d="M113.809 17.7639C113.725 19.1061 112.971 19.945 111.798 20.4484C107.691 20.1967 105.429 16.5055 101.909 15.1633C100.4 14.0727 98.724 13.4015 97.0478 12.5626C96.3774 12.2271 95.7069 11.8076 95.2879 11.3043C95.1203 10.9687 95.2041 10.6331 95.3717 10.2976C97.1316 10.4654 98.0535 9.71035 97.8859 7.86475C103.417 10.717 109.703 12.5626 113.809 17.7639Z" fill="#1EBC5D"/>
<path d="M110.458 130.849C107.692 132.611 104.926 134.457 102.161 136.218C101.323 136.973 100.401 137.393 99.2275 137.225C95.959 136.973 96.7133 134.037 95.8752 132.108C95.8752 131.101 95.8752 130.178 95.8752 129.171C95.6238 119.692 95.2047 110.212 95.4561 100.732C95.4561 99.2224 94.7857 97.2929 96.7971 96.3701C98.6408 97.6285 98.138 99.558 98.2218 101.32C98.3056 106.773 98.2218 112.226 98.2218 117.678C98.2218 119.356 97.9703 121.034 98.8922 122.544C99.2275 123.215 99.3951 123.886 99.3951 124.557C99.1436 126.235 98.8922 127.913 98.976 129.591C99.1436 130.765 98.3894 132.108 99.6465 133.114C103.166 132.863 105.429 129.507 108.949 129.339C109.787 129.591 110.541 129.759 110.458 130.849Z" fill="#1EBC5D"/>
<path d="M29.2487 14.4082C29.9192 16.8411 31.2601 16.3377 32.6848 15.1633C33.6066 14.3244 34.6961 13.5693 36.037 13.5693C36.9589 13.6532 37.6294 13.9888 37.9646 14.9116C38.0484 17.1766 36.037 17.68 34.6123 18.6028C32.6848 19.8612 30.5896 20.9517 28.7459 22.3779C27.824 23.049 26.9021 23.4685 25.8126 23.4685C24.3879 23.3846 23.2984 22.7973 22.7956 21.3712C22.7118 20.9517 22.7956 20.5323 23.047 20.1128C25.1422 18.2672 27.1535 16.3377 29.2487 14.4082Z" fill="#1EBC5D"/>
<path d="M127.219 38.0656C127.554 37.3945 127.889 36.7234 128.224 36.0522C130.655 38.7368 132.079 41.9246 133.253 45.3641C133.755 46.5386 134.007 47.797 134.845 48.8037C135.096 48.9714 135.096 49.2231 135.013 49.4748C135.013 49.6426 134.929 49.8942 134.929 50.062C134.761 51.656 134.677 53.4177 132.666 53.921C129.817 48.9714 127.973 43.6863 127.219 38.0656Z" fill="#1EBC5D"/>
<path d="M28.4104 128.332C28.4104 129.003 28.3266 129.675 28.3266 130.262C23.8849 126.906 20.0298 122.879 16.6775 118.433C17.0127 118.098 17.2641 117.846 17.5994 117.51C18.6889 116.671 19.5269 117.259 20.4488 117.846C23.0468 120.279 24.8067 123.383 27.8238 125.396C28.578 126.067 29.2485 127.074 28.4104 128.332Z" fill="#1EBC5D"/>
<path d="M110.457 130.849C109.871 130.597 109.284 130.346 108.698 130.094C110.709 126.571 113.223 123.802 117.33 122.879C118.251 123.047 118.838 123.551 119.257 124.389C117.497 125.983 115.653 127.661 113.894 129.255C112.553 129.507 112.05 131.268 110.457 130.849Z" fill="#1EBC5D"/>
<path d="M23.2146 20.7842C23.7175 22.0425 24.5555 22.7976 25.9802 22.7976C25.1422 25.9015 23.7175 28.3344 20.03 28.3344C19.4433 27.831 18.8567 27.4116 18.27 26.9082C18.4376 26.6565 18.5214 26.4049 18.4376 26.1532C18.8567 23.3848 20.6166 21.707 23.2146 20.7842Z" fill="#1EBC5D"/>
<path d="M51.0386 137.728C49.3624 134.792 50.3681 131.604 50.2843 128.5C50.6195 128.249 50.9548 128.249 51.29 128.5C51.8766 129.088 52.2119 129.759 52.4633 130.514C52.7147 131.269 52.7985 132.108 52.8823 132.863C52.8823 133.282 52.9661 133.702 52.8823 134.121C52.7985 135.379 52.8823 136.638 51.8766 137.644L52.0442 137.896L51.8766 138.148C51.5414 137.812 51.29 137.728 51.0386 137.728Z" fill="#1EBC5D"/>
<path d="M0.586647 65.4141C0.586647 68.9375 0.586647 72.5448 0.670453 76.0682C-0.25142 72.5448 -0.167613 68.9375 0.586647 65.4141Z" fill="#1EBC5D"/>
<path d="M96.2937 132.694C97.467 134.12 96.7965 137.057 99.8136 136.973C99.9812 137.308 99.8974 137.476 99.5622 137.644C97.9698 137.476 95.3718 138.734 96.1261 135.211C95.7909 134.288 95.6232 133.449 96.2937 132.694Z" fill="#1EBC5D"/>
<path d="M1.50859 58.6187C1.17336 60.8837 2.59807 63.4004 0.586713 65.4977C0.502907 63.1488 0.67052 60.8837 1.50859 58.6187Z" fill="#1EBC5D"/>
<path d="M2.84937 90.833C4.86073 92.343 4.94453 94.4403 4.86073 96.6215C4.19027 94.692 3.51982 92.7625 2.84937 90.833Z" fill="#1EBC5D"/>
<path d="M1.42474 83.2829C1.17332 83.199 1.0057 83.0312 0.754283 82.9473C0.670477 80.7661 0.670477 78.585 0.58667 76.4038C2.43042 78.585 1.25712 81.0178 1.42474 83.2829Z" fill="#1EBC5D"/>
<path d="M134.929 49.4746C136.102 50.9008 136.437 52.6625 136.689 54.4242C136.605 54.5081 136.437 54.592 136.353 54.6758C133.755 53.753 134.426 51.7397 134.677 49.8102C134.761 49.7263 134.845 49.6424 134.929 49.4746Z" fill="#1EBC5D"/>
<path d="M1.50812 85.7155C1.50812 84.8765 1.42432 84.0376 1.42432 83.1987C3.10045 84.4571 2.17858 86.2188 2.26238 87.7288C2.01096 87.0577 1.75954 86.3866 1.50812 85.7155Z" fill="#1EBC5D"/>
<path d="M134.677 48.8033C133.168 48.0483 133.001 46.7899 133.085 45.3638C134.09 46.2866 134.593 47.461 134.677 48.8033Z" fill="#1EBC5D"/>
<path d="M11.7329 43.1827C10.7272 47.7967 8.38066 52.1591 8.12924 56.9408C8.12924 57.1925 8.21304 57.3603 8.21304 57.612C8.21304 61.8904 7.7102 66.1688 7.29117 70.4473C7.12356 72.1251 6.78833 73.719 7.37498 75.3968C7.6264 86.7221 11.2301 97.0407 17.0127 106.688C17.1804 107.108 17.2642 107.527 17.1804 107.946C17.0965 108.618 16.7613 109.121 16.1747 109.457C15.7556 109.54 15.3366 109.54 15.0014 109.457C12.9062 108.114 12.152 105.765 10.9787 103.752C10.4758 102.745 9.80537 101.822 9.38634 100.732C8.9673 98.8863 7.96162 97.2924 7.20736 95.5307C6.78833 94.2723 6.4531 93.0139 6.03407 91.7556C5.86646 90.4133 5.36362 89.2388 5.02839 87.9805C4.77697 87.1416 4.52555 86.3027 4.19032 85.5476C4.35794 84.1215 4.02271 82.7792 4.19032 81.3531C3.68748 75.3968 3.68748 69.4406 4.10652 63.4843C4.35794 61.8065 4.02271 60.1287 4.60936 58.4509C5.27981 56.2697 5.02839 53.8369 6.78833 51.9913V51.5718C6.78833 49.6423 7.6264 47.9645 8.29685 46.2867C9.47014 45.5317 9.30253 44.1894 9.72156 43.0988C10.3082 41.1694 11.0625 42.3438 11.7329 43.1827Z" fill="#1EBC5D"/>
<path d="M134.51 77.662C133.336 76.7392 133.755 75.3969 133.588 74.2225C133.336 71.7896 132.75 69.5246 132.498 67.0918C130.236 53.6692 125.04 41.3372 116.994 30.3475C113.223 25.2302 109.368 19.9451 103.585 16.8411C101.155 16.17 98.8081 15.415 96.3777 14.8277C94.7853 14.4083 92.6902 14.1566 93.1092 11.556C93.7797 11.2204 94.7853 11.6399 95.372 10.8849C95.372 10.6332 95.372 10.4654 95.372 10.2137C95.372 9.96206 95.372 9.62649 95.372 9.37482C95.0368 8.70369 94.3663 8.45202 93.6959 8.11646C93.193 7.86478 92.6902 7.697 92.1873 7.61311C91.0978 7.36144 90.3436 6.43864 89.4217 5.93529C89.0027 5.93529 88.4998 6.01918 88.0808 6.01918C86.6561 5.26417 84.98 5.34806 83.3876 4.76082C81.1248 4.08969 78.7783 4.59304 76.5155 3.67024C69.9786 3.58635 63.4416 3.50246 57.0723 5.34806C55.48 6.18697 54.7258 7.86478 53.3848 8.95536C52.463 9.62649 51.4573 9.62649 50.4516 9.62649C49.1945 9.79427 48.105 10.3815 47.3508 11.4721C47.1831 11.8915 47.3508 12.8143 46.3451 12.311C46.0099 12.311 45.6746 12.4788 45.4232 12.7305C45.2556 13.066 45.088 13.4016 45.0042 13.7371C44.9204 14.5761 45.0042 15.2472 45.6746 15.9183C43.9985 15.4989 42.2386 16.0861 40.5624 15.6666C40.2272 15.5827 39.8082 15.4989 39.4729 15.5827C35.9531 17.8478 31.9303 19.4417 29.7514 23.3846C25.4772 27.9986 21.3707 32.8643 18.4375 38.7366C18.9403 39.6594 20.2812 39.7433 20.4488 41.0017C19.4431 40.75 19.1917 39.5755 18.186 39.4078C13.9119 45.5318 12.6548 52.8303 10.8111 59.8771C9.72157 60.7999 9.63776 62.0583 9.55396 63.3167C9.55396 67.0079 9.55396 70.6991 9.55396 74.3903C9.72157 83.7021 12.571 92.4268 15.169 101.235C15.9233 102.41 16.8451 103.5 17.4318 104.759C17.5994 105.094 17.767 105.43 17.9346 105.765C18.9403 107.947 19.7784 110.212 20.784 112.393C21.5383 113.567 20.1974 114.658 20.7002 115.832C20.784 116.084 20.8679 116.252 20.9517 116.587C20.6164 118.685 22.2926 119.524 23.5497 120.53C26.9019 123.215 30.338 125.899 33.9417 128.248C36.6235 129.255 38.2158 132.694 41.7357 131.772C42.2386 131.268 42.6576 130.765 42.909 130.262C42.7414 131.184 42.49 132.107 42.2386 132.946C43.1604 134.372 44.1661 134.288 45.3394 133.366C45.8422 132.611 46.0937 131.856 46.0937 131.017C45.926 119.188 46.6803 107.275 45.5908 95.4469C45.5908 94.9435 45.507 94.5241 45.2556 94.1046C38.7187 89.4906 35.115 83.5344 36.0369 75.3131C36.0369 73.803 35.9531 72.3769 36.2045 70.9507C36.2045 69.3568 36.2045 67.7629 36.1207 66.0851C36.0369 64.8267 35.9531 63.5683 35.8692 62.31C35.7854 60.8838 35.8692 59.4577 35.8692 58.0315C35.9531 55.347 35.9531 52.6625 36.0369 50.0619C36.0369 49.223 36.1207 48.3841 36.3721 47.6291C36.7073 46.874 37.294 46.2029 38.132 46.0351C38.5511 46.3707 38.7187 46.9579 38.8025 47.5452C38.8025 48.1324 38.6349 48.6358 38.5511 49.223C38.2158 50.8169 38.2158 52.327 38.132 53.9209C38.0482 58.1993 38.0482 62.4778 38.2158 66.6723C38.2158 67.2595 38.2996 67.8468 38.2158 68.434C38.132 68.7696 38.132 69.1051 38.0482 69.3568C38.0482 69.5246 37.9644 69.6924 37.9644 69.7763V70.1118C37.8806 73.1319 37.3778 76.2359 38.5511 79.172C40.1434 81.0176 41.5681 80.4304 42.909 78.8365C44.4175 74.7258 42.7414 70.3635 44.0823 66.3367C44.5851 63.82 44.4175 61.2194 44.4175 58.6188C44.2499 54.7598 44.5013 50.9008 44.2499 47.1257C44.2499 46.7063 44.1661 46.2029 44.0823 45.7835C43.8309 44.6929 43.1604 44.1056 41.4005 45.2801C41.9871 44.609 42.49 44.0218 43.4957 44.1056C43.7471 44.1056 43.9985 44.1056 44.1661 44.1056C44.5851 44.1056 45.0042 44.1895 45.4232 44.2734C45.507 44.3573 45.6746 44.3573 45.7584 44.4412C45.926 44.5251 46.0937 44.609 46.3451 44.6929C46.5965 44.8607 46.8479 45.1123 47.0155 45.364C47.267 45.7835 47.5184 46.2029 47.7698 46.6224C47.9374 46.874 48.105 47.0418 48.2726 47.2096L48.3564 47.2935C48.4403 47.2935 48.4402 47.3774 48.5241 47.3774C48.7755 47.4613 49.0269 47.5452 49.2783 47.5452C49.3621 47.5452 49.5297 47.5452 49.6135 47.5452C49.7812 47.5452 49.865 47.4613 49.9488 47.3774C50.0326 47.3774 50.0326 47.2935 50.1164 47.2935C50.0326 47.2096 50.0326 47.1257 49.9488 47.0418C49.9488 46.3707 50.0326 45.6996 50.1164 45.0285C50.2002 44.2734 49.865 43.0151 50.9545 43.099C52.3792 43.1829 51.4573 44.6929 51.8763 45.4479C51.7925 45.5318 51.7925 45.5318 51.7925 45.6157C51.8763 45.6157 51.8763 45.6157 51.9601 45.6157C51.9601 45.6157 51.9601 45.6157 52.0439 45.6157C53.0496 45.5318 53.5525 44.7768 54.0553 44.1056C54.3067 43.7701 54.6419 43.5184 54.8934 43.3506C55.3124 43.1829 55.7314 43.099 56.1505 43.1828C56.4857 43.2667 56.7371 43.4345 57.0723 43.6023C57.1561 43.2667 57.4076 43.0151 57.659 42.6795C57.9104 42.7634 58.1618 42.7634 58.4132 42.7634C58.4132 43.099 58.4132 43.3506 58.4132 43.6862C59.5027 43.5184 60.0894 48.0485 60.0894 48.9713C60.0894 59.8771 59.9218 70.8668 59.5865 81.7727C59.5865 82.9471 59.5027 84.2055 59.2513 85.38C58.9161 86.9739 57.8266 88.5678 56.3181 89.1551C56.3181 89.2389 56.3181 89.2389 56.3181 89.3228C56.3181 89.4067 56.4019 89.4906 56.4019 89.5745C56.8209 89.994 57.24 90.3295 57.659 90.6651C57.8266 90.749 58.078 90.749 58.1618 90.6651C58.6647 90.5812 58.9999 90.1617 59.4189 89.7423C59.4189 89.7423 59.5027 89.5745 59.5865 89.5745C59.5865 89.5745 59.5027 89.7423 59.5027 89.8262C59.0837 90.3295 58.6647 90.9168 58.2456 91.504C57.9942 91.7557 57.7428 92.0073 57.4914 92.259C55.899 93.4335 54.2229 94.608 52.6306 95.7824C52.5468 96.2019 52.463 96.5375 52.463 96.873C52.3792 97.3764 52.3792 97.7958 52.3792 98.2992C52.463 100.816 52.463 103.249 51.6249 105.682C51.3735 108.031 51.5411 110.379 51.4573 112.728C51.2897 119.356 51.6249 125.899 51.8763 132.443C51.8763 132.778 51.8763 133.03 51.9601 133.366C52.2115 134.959 55.7314 135.127 53.9715 137.644C55.3962 139.238 57.9104 138.399 59.3351 139.825C60.0894 140.664 61.0951 140.329 62.0169 140.58C66.5425 139.993 71.1519 140.664 75.6774 139.993C77.1021 139.909 78.443 140.161 79.8678 139.741C81.7953 138.651 84.4771 139.825 86.0694 137.644C87.7456 137.057 89.3379 136.386 91.014 135.798C91.2655 134.959 91.5169 134.121 91.7683 133.282V118.265C91.5169 117.93 91.2655 117.51 91.0978 117.091C90.5112 110.547 91.6845 103.92 90.4274 97.3764C89.8407 96.2019 88.4998 95.5308 88.0808 94.2724C87.9132 93.9368 87.7456 93.6852 87.4942 93.4335C86.5723 92.6785 85.5666 92.0073 84.8962 91.0007C84.3095 90.0779 84.98 88.9873 84.6447 87.9806C83.8905 86.5544 82.4658 85.5477 81.8791 83.9538C81.7115 83.6183 81.6277 83.2827 81.4601 82.9471C81.2087 82.4438 80.8734 82.0243 80.5382 81.6049C79.5325 80.2626 79.3649 78.6687 79.1135 77.0748C79.0297 76.7392 78.9459 76.3197 78.8621 75.9842C78.5268 72.5447 78.9459 69.1051 78.5268 65.7495C78.443 65.33 78.3592 64.9945 78.1916 64.575C77.5212 63.3167 77.5212 62.0583 78.443 60.8838C78.7783 60.4644 79.1135 59.961 79.3649 59.4577C80.203 55.4309 82.9686 52.4108 84.8123 48.8874C83.9743 45.8674 86.9075 48.0485 87.4942 46.8741C90.0922 45.7835 92.8578 45.5318 95.6234 45.1962C96.7967 44.7768 97.4672 44.1895 96.7129 42.9312C96.4615 42.5956 96.1262 42.3439 95.791 42.1762C95.4558 42.0084 95.0368 41.9245 94.6177 41.9245C94.1987 41.8406 93.7797 42.0084 93.3606 41.8406C93.3606 41.8406 93.5282 41.8406 93.6959 41.8406C94.0311 41.7567 94.3663 41.6728 94.7015 41.505C96.2101 41.0017 97.8024 40.9178 99.1433 40.3306C98.8081 40.6661 98.7243 41.1695 98.7243 41.8406C98.8081 42.6795 99.2271 43.2667 99.7299 43.854C100.903 44.6929 101.993 45.6157 103.25 46.3707C104.255 46.6224 105.01 47.1257 105.345 48.2163C105.932 49.4747 107.021 50.4814 107.692 51.7397C108.53 53.3336 109.368 54.9276 110.373 56.5215C110.792 57.1087 111.128 57.7799 111.379 58.451C111.882 60.2966 112.469 62.1422 112.636 64.0717C112.72 64.6589 112.804 65.2461 112.971 65.9173C113.558 69.5246 113.558 73.048 112.971 76.6553C112.552 77.9976 112.72 79.4237 111.966 80.6821C109.703 85.4639 107.356 90.1617 102.915 93.3496C101.574 94.5241 99.6461 94.4402 98.3052 95.5308C98.0538 95.9502 97.8862 96.3697 97.8024 96.873C97.6348 104.507 97.8024 112.141 97.7186 119.775C97.7186 121.034 97.6348 122.292 98.5566 123.299C98.5566 123.886 98.5566 124.473 98.5566 125.06C98.3052 125.312 98.2214 125.648 98.389 125.983C98.6404 126.654 98.8081 127.325 99.3947 127.745C99.7299 127.829 100.065 127.913 100.4 127.829C102.496 128.416 100.065 129.507 100.652 130.262C100.736 130.681 100.987 130.933 101.322 131.184C102.998 131.688 104.172 130.681 105.513 129.926C109.871 127.242 113.977 124.305 117.497 120.53C119.005 118.852 120.682 117.342 122.19 115.665C130.487 104.927 132.582 92.0912 134.845 79.2559C134.929 78.8365 134.761 78.2492 134.51 77.662ZM43.9985 99.8931C43.9147 101.487 43.8309 103.165 43.7471 104.759C43.7471 103.249 43.7471 101.655 43.7471 100.145C43.7471 99.8931 43.6633 99.8092 43.5795 99.8931C43.0766 100.061 43.9985 99.3059 43.9985 99.8931ZM43.5795 122.795C43.6633 123.383 43.6633 123.97 43.6633 124.557C43.4957 122.628 43.4119 120.698 43.4119 118.769C43.4119 120.111 43.4957 121.453 43.5795 122.795ZM47.0155 16.17C46.7641 16.2539 46.4289 16.2539 46.1775 16.17C46.4289 16.17 46.6803 16.17 47.0155 16.17C47.3508 16.0022 47.686 15.6666 48.1888 15.9183C47.7698 16.0022 47.3508 16.0022 47.0155 16.17Z" fill="#1EBC5D"/>
<path d="M133.923 77.2427C131.744 76.991 133.588 75.3132 133.085 74.5582C132.498 72.9643 132.917 71.3703 132.749 69.7764C132.749 66.1691 133.252 62.4779 132.414 58.9545C132.247 57.78 132.163 56.6055 132.917 55.5149C134.677 54.676 135.683 55.0955 135.683 57.1928C135.431 57.5283 135.18 57.78 134.845 58.1156C135.934 60.0451 135.18 62.0584 135.18 63.9879C135.264 68.4342 135.431 72.9643 133.923 77.2427Z" fill="#1EBC5D"/>
<path d="M135.599 57.1925C135.096 56.0181 134.174 55.4308 132.833 55.5986C131.66 54.8436 132.247 54.4242 133.001 53.9208C133.336 52.4947 133.504 51.0685 134.509 49.894C134.845 51.5719 135.18 53.2497 136.186 54.7597C136.437 55.5986 136.605 56.6053 135.599 57.1925Z" fill="#1EBC5D"/>
<path d="M134.845 63.8202C134.845 61.8907 134.845 59.9612 134.845 58.0317C137.946 58.4512 135.18 61.1357 136.437 62.2263C135.348 62.3102 135.85 63.3169 135.515 63.8202C135.264 64.2397 135.012 64.2397 134.845 63.8202Z" fill="#1EBC5D"/>
<path d="M118 122.376C118.586 121.873 119.089 121.37 119.676 120.866C120.011 121.453 120.262 122.125 120.598 122.712C120.179 123.299 119.676 123.802 119.257 124.39C118.586 124.054 117.916 123.718 117.245 123.467C116.91 122.712 117.329 122.376 118 122.376Z" fill="#1EBC5D"/>
<path d="M52.7143 104.927C52.7143 112.813 52.7143 120.698 52.7143 128.668C52.7143 130.01 53.1333 131.436 51.9601 132.611C51.8762 131.772 51.7924 131.017 51.7086 130.178C50.2839 119.524 51.2896 108.87 51.122 98.1318C51.2058 97.6284 51.4572 97.1251 51.7924 96.7056C52.1277 96.4539 52.4629 96.1184 52.7143 95.8667C52.9657 96.37 53.2172 96.8734 53.5524 97.3767C52.3791 99.8096 53.8038 102.578 52.7143 104.927Z" fill="#1EBC5D"/>
<path d="M74.5878 141.168C69.9784 142.174 65.4529 142.006 60.8435 141.251C63.5253 139.49 66.4586 140.58 69.308 140.245C71.0679 140.412 73.0793 139.657 74.5878 141.168Z" fill="#1EBC5D"/>
<path d="M95.2884 94.0212C110.793 87.1421 115.57 71.9579 107.44 55.1797C106.938 54.173 106.519 53.1663 106.016 52.2435C106.686 51.2368 107.524 50.9851 108.614 51.4885C109.536 52.9985 110.457 54.4247 111.379 55.9347C111.128 57.3608 112.134 58.5353 112.301 59.8776C113.223 61.8071 112.804 63.9882 113.558 65.9177C114.061 66.9244 113.893 68.015 113.893 69.1056C113.893 70.6995 113.893 72.2095 113.893 73.8035C113.977 76.4041 112.72 78.9208 113.055 81.6053C110.709 86.3871 108.614 91.2528 103.753 94.189C102.244 94.3567 101.071 95.1117 99.814 95.7829C99.4788 95.7829 99.1435 95.8668 98.8083 95.8668C98.3055 96.3701 97.8026 96.7896 97.0484 96.7057C95.8751 97.964 96.3779 99.6419 96.3779 101.068C96.2941 110.883 96.2941 120.698 96.2941 130.514C96.1265 130.346 95.8751 130.178 95.7075 130.01C95.6237 127.326 95.5398 124.557 95.456 121.873C94.8694 112.477 94.7856 103.249 95.2884 94.0212Z" fill="#1EBC5D"/>
<path d="M85.3153 88.2327C87.2429 91.4206 89.4263 89.7858 91.6891 92.4703C91.6053 92.722 91.5215 92.9737 91.5215 93.2254C90.3482 93.2254 91.7374 99.238 90.5641 99.238C89.8098 99.993 88.6676 94.7762 87.8295 94.1051L87.6619 93.6856C86.5724 92.8467 85.483 92.0917 84.3935 91.4206C81.7117 90.2461 85.0639 89.3233 84.4773 88.2327C84.7287 87.981 85.0639 87.981 85.3153 88.2327Z" fill="#1EBC5D"/>
<path d="M37.8804 12.8144C38.5509 12.7305 39.2213 12.7305 39.5566 11.9755C43.0764 10.801 46.5963 9.54264 50.1162 8.36816C50.619 8.53595 51.0381 8.78762 51.2895 9.29096C51.3733 9.62653 51.2057 9.96209 50.9543 10.2138C49.8648 10.801 48.7753 11.3043 47.6858 11.8916C47.5182 12.2271 47.3506 12.6466 46.8477 12.7305C46.5963 12.7305 46.3449 12.7305 46.0935 12.7305C45.0878 13.0661 44.585 14.0727 43.7469 14.5761C43.4117 14.7439 43.0764 14.8278 42.7412 14.9117C41.5679 14.9117 40.3946 14.9955 39.3051 15.5828C38.8023 15.8345 38.2995 15.8345 37.7966 15.4989C37.4614 14.66 36.7909 14.3244 35.9529 14.3244C36.5395 13.8211 37.21 13.3177 37.8804 12.8144Z" fill="#1EBC5D"/>
<path d="M51.9603 133.533C52.8822 134.875 55.4802 133.365 55.6478 135.714C55.7316 136.721 55.564 137.896 53.9717 137.896C53.2174 137.812 52.547 137.644 51.7927 137.56C51.8765 136.134 51.9603 134.875 51.9603 133.533Z" fill="#1EBC5D"/>
<path d="M18.4376 38.7363C19.2757 38.9041 20.03 38.988 20.868 39.2397C22.0413 39.5752 22.3765 40.5819 22.1251 41.5047C21.8737 42.1759 21.0356 43.0148 20.3652 43.0987C19.3595 43.2664 19.2757 42.092 19.0243 41.3369C18.7729 40.6658 18.5214 40.0786 18.1862 39.4075C18.1024 39.0719 18.1862 38.9041 18.4376 38.7363Z" fill="#1EBC5D"/>
<path d="M21.9576 112.561C23.3823 114.322 21.5385 114.91 20.7843 115.916C18.4377 114.239 17.013 111.722 15.4207 109.289C15.8397 108.87 16.3425 108.366 16.7616 107.947C19.7786 108.115 19.7786 111.554 21.9576 112.561Z" fill="#1EBC5D"/>
<path d="M3.93859 68.8539C4.02239 66.9244 4.02239 65.0788 4.1062 63.1493C4.35762 62.9816 4.52523 62.8138 4.77665 62.646C4.77665 69.2734 4.77665 75.9847 4.77665 82.612C3.60336 82.0248 5.11188 79.9275 3.18433 79.8436C4.69285 76.3202 3.93859 72.5451 3.93859 68.8539Z" fill="#1EBC5D"/>
<path d="M56.7569 58.1994C56.0143 63.7362 56.7569 69.3569 56.1628 74.8937C56.0885 75.6487 55.94 76.4037 55.7915 77.2426C55.7172 77.8299 55.5687 78.3332 55.4202 78.9205C55.2717 79.4238 54.9746 79.7594 54.6033 80.0949C54.0835 80.0949 53.8607 79.7594 53.8607 79.1721C53.5637 78.7527 53.4152 78.2493 53.3409 77.8299C52.9696 76.1521 53.4152 74.3065 52.8211 72.7125C52.7468 68.1824 52.8211 63.7362 52.8211 59.2061V58.9544C52.8211 57.6961 52.7468 56.4377 52.5983 55.2632C52.5983 55.1793 52.5983 55.0954 52.5983 55.0115C52.8211 53.5015 52.5983 51.9915 52.3755 50.4814C52.3755 49.0553 52.3755 47.713 52.3013 46.2869L52.5983 46.3708C52.5983 46.1191 52.5983 45.9513 52.5983 45.6997C52.524 45.6997 52.5241 45.6997 52.4498 45.6997C52.4498 45.6158 52.524 45.6158 52.524 45.5319C52.9696 44.9446 53.4152 44.4413 53.8607 43.8541C55.0489 42.8474 55.7915 42.8474 56.2371 43.4346C56.6084 43.8541 56.7569 44.693 56.6826 45.6158C56.5341 49.7264 57.2024 53.921 56.7569 58.1994Z" fill="#1EBC5D"/>
<path d="M50.1165 48.2166C50.0327 47.965 49.8651 47.7972 49.6975 47.5455C49.6137 47.3777 49.4461 47.2099 49.3623 47.0422H48.5242C48.4404 47.1261 48.4404 47.1261 48.4404 47.2099C48.1052 47.7133 47.9376 48.2166 47.8538 48.72C47.9376 48.0489 48.0214 47.2938 47.9376 46.6227C47.8538 45.616 47.6023 44.6093 46.8481 43.6865H46.01V44.4415C46.0938 54.2568 46.0938 64.072 46.1776 73.8872C47.8538 73.8034 47.6023 72.3772 47.9376 71.3705C47.9376 71.2866 48.0214 71.2027 48.0214 71.1189C48.0214 68.3505 47.3509 65.5821 47.2671 62.7298C47.3509 65.4982 48.0214 68.2666 48.1052 71.1189V71.2866C48.1052 71.3705 48.0214 71.3705 48.0214 71.4544C47.5185 73.1322 47.7699 75.2295 46.0938 76.4879C45.9262 79.0046 46.0938 81.018 49.3623 79.0046C49.9489 71.2866 50.1165 63.5687 50.2842 55.8507C50.368 53.9212 50.368 52.0756 50.4518 50.1461C50.4518 49.475 50.368 48.8039 50.1165 48.2166ZM47.6861 51.7401C47.5185 50.985 47.6023 50.23 47.6861 49.3911C47.6023 50.23 47.6861 51.0689 47.6861 51.7401Z" fill="#1EBC5D"/>
<path d="M42.6576 132.611C42.0709 132.275 41.5681 131.94 40.9814 131.604C42.7414 129.339 43.1604 127.074 42.909 124.054C42.4062 118.433 42.0709 112.645 43.2442 106.94C43.8309 103.92 43.5795 100.9 43.2442 97.7124C44.7527 98.3835 44.2499 99.4741 44.2499 100.313C44.2499 109.373 44.2499 118.433 44.2499 127.578C44.3337 129.507 44.1661 131.353 42.6576 132.611Z" fill="#1EBC5D"/>
<path d="M56.6534 79.7593C55.8991 80.1787 55.1449 81.1015 54.223 80.0948C54.223 79.7593 54.3068 79.3398 54.3068 79.0043C56.2344 74.4742 55.3963 69.6924 55.5639 65.0784C55.6477 63.3167 55.3963 61.555 55.5639 59.7933C55.6477 59.206 55.7315 58.7027 55.983 58.1154C56.5696 53.837 54.9773 49.6425 55.8991 45.364C56.1506 44.3573 55.7315 43.6862 54.8935 43.6023C54.4744 43.5184 53.9716 43.6023 53.4688 43.9379C54.3906 41.3373 55.983 42.0084 57.6591 43.0151C57.3239 43.2667 57.1562 43.6023 57.0724 43.9379C56.6534 45.0285 57.0724 46.2868 57.0724 47.3774C56.821 58.0315 57.6591 68.8535 56.6534 79.7593Z" fill="#1EBC5D"/>
<path d="M100.484 47.042C99.3947 45.5319 97.3833 45.6997 96.1262 44.6091C97.1319 44.1058 96.3776 43.5185 96.21 42.9313C97.8862 41.3374 99.0595 42.9313 100.317 43.6863C102.244 43.7702 103.166 45.0286 104.004 46.5386C105.01 46.6225 105.764 47.2936 106.351 47.9648C106.853 49.2231 108.613 49.8104 108.613 51.4043C107.775 51.656 106.937 51.9076 106.015 52.1593C104.172 50.4815 102.998 48.0487 100.484 47.042Z" fill="#1EBC5D"/>
<path d="M39.2217 79.0042C37.9646 77.7459 38.5513 76.1519 38.5513 74.6419C38.5513 65.2461 38.7189 55.8503 38.7189 46.3707C38.7189 45.1962 39.6408 43.5184 37.6294 42.9312C39.4731 42.9312 39.4731 42.9312 39.4731 44.1895C39.3893 55.8504 39.3055 67.4273 39.2217 79.0042Z" fill="#1EBC5D"/>
<path d="M92.9417 10.2139C93.696 12.0595 95.3721 12.3111 97.0483 12.8145C98.2216 13.5695 99.311 14.3245 100.484 15.1634C101.406 16.0023 102.328 16.8412 103.334 17.6802C99.7301 16.0023 95.0369 17.0929 92.1037 13.3178C90.4275 11.2206 91.3494 10.8011 92.9417 10.2139Z" fill="#1EBC5D"/>
<path d="M50.4513 50.146C50.3675 52.0755 50.3675 53.9211 50.2837 55.8506C50.1161 63.5686 49.9485 71.2866 49.3618 79.0045C49.3618 68.5182 49.3618 58.0318 49.3618 47.6293V47.126C49.6132 47.126 49.8647 47.126 50.0323 47.126C50.1161 47.2099 50.1161 47.2938 50.1999 47.3776C50.1161 47.3776 50.1161 47.4615 50.0323 47.4615C50.0323 47.7132 50.0323 48.0488 50.0323 48.3004C50.3675 48.8038 50.4513 49.4749 50.4513 50.146Z" fill="#1EBC5D"/>
<path d="M50.6194 56.3535C50.6194 56.4373 50.6194 56.5211 50.6194 56.6049C50.5356 56.6049 50.4518 56.5211 50.2842 56.3535C50.368 56.3535 50.5356 56.3535 50.6194 56.3535Z" fill="#1EBC5D"/>
<path d="M48.4403 47.1257C48.4403 49.9779 48.4403 52.9141 48.4403 55.7664C45.5071 51.9913 48.0213 47.7129 46.7642 43.77C48.3565 44.3573 48.5241 45.6156 48.4403 47.1257Z" fill="#1EBC5D"/>
<path d="M89.5891 96.6211C91.5167 97.5439 91.2652 99.3056 91.2652 100.9C91.2652 106.772 91.2652 112.56 91.2652 118.433C89.5891 115.832 90.6786 113.064 90.4272 110.295C90.0919 105.681 91.0138 101.067 89.5891 96.6211Z" fill="#1EBC5D"/>
<path d="M44.4174 42.9312C43.9984 48.0485 44.6688 53.3336 43.5793 58.451C43.5793 54.0886 43.5793 49.7263 43.5793 45.4479C41.6518 45.1123 42.2384 46.7901 41.2327 47.2935C40.5623 44.4412 41.9032 43.3506 44.4174 42.9312Z" fill="#1EBC5D"/>
<path d="M34.7795 24.8943C36.2043 21.5387 38.6346 21.3709 40.9812 21.1193C41.9031 21.0354 42.5736 21.6226 42.3221 22.6293C42.0707 23.636 41.3165 24.7266 40.3108 23.7199C38.2156 21.3709 37.1261 24.3071 34.7795 24.8943Z" fill="#1EBC5D"/>
<path d="M134.845 63.8198C135.096 63.8198 135.264 63.8198 135.515 63.8198C135.851 69.0211 135.599 74.2223 134.091 79.2557C134.007 78.5846 133.923 77.9135 133.923 77.2424C134.342 72.7961 135.096 68.3499 134.845 63.8198Z" fill="#1EBC5D"/>
<path d="M42.4064 14.4088C42.8255 14.3249 43.1607 14.3249 43.5797 14.2411C44.0826 13.3183 44.753 12.8149 45.9263 13.3183C45.9263 14.2411 46.0101 15.1639 46.0101 16.0028C44.334 17.6806 42.6579 16.5061 40.9817 15.9189C40.4789 14.5766 41.8198 14.8283 42.4064 14.4088Z" fill="#1EBC5D"/>
<path d="M94.6177 41.0858C96.7966 39.1563 100.149 40.8341 102.16 37.8979C102.831 40.918 99.0594 40.0791 99.5623 42.1764C98.808 42.7636 97.9699 42.5119 97.2157 42.4281C96.2938 42.0086 95.1205 42.1764 94.6177 41.0858Z" fill="#1EBC5D"/>
<path d="M43.3283 66.4209C43.1607 70.5316 44.2502 74.7261 42.574 78.7529C42.9931 74.6422 41.8198 70.4477 43.3283 66.4209Z" fill="#1EBC5D"/>
<path d="M77.8562 64.6592C79.4485 66.1692 77.94 68.0987 78.6105 69.7765C79.7837 71.1188 79.5323 72.5449 78.6943 73.9711C78.6943 75.0617 78.6105 76.2361 78.6105 77.3267C76.7667 73.2161 78.1076 68.8537 77.8562 64.6592Z" fill="#1EBC5D"/>
<path d="M35.7018 120.782C32.8524 122.04 30.8411 120.362 28.9973 121.453C30.7573 118.768 32.7686 119.691 35.7018 120.782Z" fill="#1EBC5D"/>
<path d="M115.15 57.2767C113.474 55.6828 113.893 54.3405 113.558 52.7466C116.24 53.8372 115.402 55.2633 115.15 57.2767Z" fill="#1EBC5D"/>
<path d="M60.8435 42.6792C61.7654 44.6926 62.1845 46.2026 61.5978 48.3838C60.7597 46.4543 59.8379 45.1959 60.8435 42.6792Z" fill="#1EBC5D"/>
<path d="M40.3945 63.9038C41.2326 65.8333 40.8135 67.7628 40.5621 69.6923C39.8078 67.7628 40.1431 65.8333 40.3945 63.9038Z" fill="#1EBC5D"/>
<path d="M76.4316 49.0557C78.9458 50.314 77.9402 51.7402 77.6049 53.2502C76.0964 52.0757 76.6831 50.6496 76.4316 49.0557Z" fill="#1EBC5D"/>
<path d="M52.7146 104.926C53.0498 102.409 51.8765 99.7249 53.5527 97.376C53.1336 99.8927 54.3069 102.577 52.7146 104.926Z" fill="#1EBC5D"/>
<path d="M100.484 127.661C101.071 126.99 102.077 125.899 102.58 126.822C103.166 127.829 102.412 129.339 101.322 130.178C98.8083 130.01 100.401 128.584 100.484 127.661Z" fill="#1EBC5D"/>
<path d="M60.5924 64.743C60.1734 62.1424 60.0896 60.5485 60.7601 58.0317C61.0953 60.5485 61.2629 62.1424 60.5924 64.743Z" fill="#1EBC5D"/>
<path d="M53.385 7.61332C54.3906 6.69052 55.6477 6.9422 56.9048 6.77441C55.3963 7.52943 55.6477 10.0462 53.5526 10.2139C53.3012 10.0462 53.1335 9.79449 53.1335 9.45892C53.1335 8.7878 53.3012 8.20056 53.385 7.61332Z" fill="#1EBC5D"/>
<path d="M27.3209 115.077C26.5667 113.819 25.7286 113.064 26.8181 112.141C26.9857 111.974 27.8238 112.057 27.8238 112.141C28.2428 113.148 28.0752 113.987 27.3209 115.077Z" fill="#1EBC5D"/>
<path d="M58.9998 39.9951C60.173 39.4918 61.1787 39.2401 62.352 40.2468C61.0111 41.4213 60.0892 41.5051 58.9998 39.9951Z" fill="#1EBC5D"/>
<path d="M123.028 100.9C125.123 102.242 125.962 103.333 125.207 105.346C124.537 103.92 123.95 102.662 123.028 100.9Z" fill="#1EBC5D"/>
<path d="M45.9258 16.0865C47.0991 15.7509 48.3562 14.3248 49.6133 17.3449C48.1886 16.0026 46.8477 17.4288 45.9258 16.0865Z" fill="#1EBC5D"/>
<path d="M35.7851 69.7764C35.9527 71.8736 35.9527 74.0548 35.1985 76.0682C35.1985 73.887 34.3604 71.7059 35.7851 69.7764Z" fill="#1EBC5D"/>
<path d="M76.0965 75.1455C75.9288 75.3133 75.6774 75.4811 75.5098 75.7328C75.426 73.9711 74.9231 72.2094 75.6774 70.3638C76.5993 71.9577 75.9288 73.6355 76.0965 75.1455Z" fill="#1EBC5D"/>
<path d="M78.6108 77.3267C79.1975 78.7528 79.8679 80.0951 80.4546 81.5212C80.6222 81.8568 80.5384 82.1923 80.2031 82.3601C78.7784 80.934 78.527 79.1723 78.6108 77.3267Z" fill="#1EBC5D"/>
<path d="M46.7642 12.73C47.0156 12.4783 47.3508 12.1428 47.6022 11.8911C47.6022 12.73 49.3622 13.4011 48.3565 14.1562C47.4346 14.8273 46.9318 13.6528 46.7642 12.73Z" fill="#1EBC5D"/>
<path d="M105.512 94.021C107.105 94.5243 107.943 94.776 108.781 95.0277C107.775 95.7827 106.853 95.9505 105.512 94.021Z" fill="#1EBC5D"/>
<path d="M87.2429 46.3711C86.321 47.1261 85.3991 47.8811 84.3934 48.6362C83.8068 45.9516 85.9858 46.7067 87.2429 46.3711Z" fill="#1EBC5D"/>
<path d="M78.0242 60.6323C77.9404 61.9746 77.9404 63.3168 77.8566 64.743C75.51 63.2329 76.6833 61.8907 78.0242 60.6323Z" fill="#1EBC5D"/>
<path d="M115.066 82.4436C114.479 81.6047 114.563 80.6819 115.066 79.5913C115.653 80.6819 115.737 81.5208 115.066 82.4436Z" fill="#1EBC5D"/>
<path d="M33.9419 75.0614C33.1039 73.9708 33.5229 73.1319 33.4391 71.8735C34.5286 72.9641 34.1933 73.803 33.9419 75.0614Z" fill="#1EBC5D"/>
<path d="M99.6459 127.661C99.5621 128.584 99.5621 129.507 99.4783 130.43C99.2269 130.346 99.0593 130.262 98.8079 130.178C98.8079 128.752 98.8917 127.41 98.8917 125.983C99.1431 126.487 99.3945 127.074 99.6459 127.661Z" fill="#1EBC5D"/>
<path d="M53.4684 9.37535C53.4684 9.62702 53.4684 9.96258 53.4684 10.2143C52.6303 10.4659 51.7922 11.5565 50.8704 10.2143C50.9542 9.96258 50.9542 9.71091 51.038 9.37535C51.876 8.62033 52.6303 8.62033 53.4684 9.37535Z" fill="#1EBC5D"/>
<path d="M53.4688 9.3745C52.6307 9.3745 51.8765 9.3745 51.0384 9.45839C50.7032 9.12283 50.3679 8.78727 50.0327 8.36781C50.8708 7.10945 52.2117 7.86447 53.3012 7.61279C54.223 8.11614 54.4745 8.70337 53.4688 9.3745Z" fill="#1EBC5D"/>
<path d="M133.253 69.7764C133.169 69.5247 133.085 69.1892 133.001 68.9375C133.085 65.5819 133.169 62.2262 133.253 58.8706C134.51 62.4779 134.426 66.0852 133.253 69.7764Z" fill="#1EBC5D"/>
<path d="M48.4404 71.4542C47.8538 73.2159 50.0327 76.3199 46.01 76.4877C46.01 75.6488 46.01 74.8099 46.01 73.971C46.5129 73.1321 47.0157 72.2931 47.6023 71.4542C47.9376 71.0348 48.189 71.0348 48.4404 71.4542Z" fill="#1EBC5D"/>
<path d="M52.882 78.9208C52.7982 76.9913 52.7982 75.0618 52.7144 73.1323C54.2229 74.9779 53.301 77.1591 53.4686 79.1725C53.301 79.0047 53.0496 78.9208 52.882 78.9208Z" fill="#1EBC5D"/>
<path d="M55.983 58.0317C55.983 63.233 55.983 68.5181 55.983 73.7193C55.983 75.6488 55.983 77.5783 54.3069 79.0045C56.1506 72.0415 54.1393 64.9108 55.983 58.0317Z" fill="#1EBC5D"/>
<path d="M54.2227 57.3604C54.2227 59.4576 54.2227 61.6388 54.2227 63.7361C54.0551 63.7361 53.9713 63.7361 53.8037 63.7361C53.8037 61.6388 53.8037 59.4576 53.8037 57.3604C53.8875 57.3604 54.0551 57.3604 54.2227 57.3604Z" fill="#1EBC5D"/>
<path d="M48.4403 71.454C48.1889 71.454 47.8537 71.454 47.6022 71.454C46.5966 67.1755 46.5966 62.8971 47.5184 58.6187C47.4346 62.8971 48.7755 67.0916 48.4403 71.454Z" fill="#1EBC5D"/>
</svg>
