<svg width="22" height="22" viewBox="0 0 22 22" fill="none" xmlns="http://www.w3.org/2000/svg">
<path d="M1.76355 17.1733H20.2357C21.0875 17.1733 21.7775 16.4808 21.7775 15.6272V15.3425C21.7775 14.4889 21.0874 13.7965 20.2357 13.7965H1.76355C0.911745 13.7965 0.221777 14.489 0.221777 15.3425V15.6272C0.221777 16.4808 0.911791 17.1733 1.76355 17.1733Z" fill="#E94444" stroke="#AC0F0F" stroke-width="0.2"/>
<path d="M1.76355 11.4951H20.2357C21.0875 11.4951 21.7775 10.8026 21.7775 9.949V9.66431C21.7775 8.8107 21.0874 8.11826 20.2357 8.11826H1.76355C0.911744 8.11826 0.221777 8.81075 0.221777 9.66431V9.949C0.221777 10.8026 0.911791 11.4951 1.76355 11.4951Z" fill="#9E5528" stroke="#642C0A" stroke-width="0.2"/>
<path d="M21.6776 15.3424V15.6272C21.6776 16.426 21.0324 17.0735 20.236 17.0735H19.3923C20.1888 17.0735 20.8339 16.426 20.8339 15.6272V15.3424C20.8339 14.544 20.1887 13.8965 19.3923 13.8965H20.236C21.0324 13.8965 21.6776 14.5441 21.6776 15.3424Z" fill="#D83131"/>
<path d="M21.6776 9.66418V9.94896C21.6776 10.7477 21.0324 11.3949 20.236 11.3949H19.3923C20.1888 11.3949 20.8339 10.7477 20.8339 9.94896V9.66418C20.8339 8.86582 20.1887 8.21826 19.3923 8.21826H20.236C21.0324 8.21826 21.6776 8.86582 21.6776 9.66418V9.66418Z" fill="#904D24"/>
<path d="M0.486863 6.58872L0.486863 6.58872C0.190221 7.43419 0.822586 8.31811 1.71551 8.31811H11.0002H20.2849C21.1855 8.31811 21.8084 7.42436 21.5088 6.57499L21.4145 6.60825L21.5088 6.57499C21.1026 5.42335 20.2865 3.86034 18.6632 2.57218C17.0388 1.28322 14.614 0.275696 11.0017 0.223253L11.0002 0.323226L10.9988 0.223253C7.37932 0.275804 4.95204 1.28724 3.32765 2.57987C1.70428 3.87168 0.890619 5.43806 0.486863 6.58872Z" fill="#FE9738" stroke="#C76603" stroke-width="0.2"/>
<path d="M20.2846 8.21837H20.1819C20.4616 7.90557 20.5767 7.45018 20.4208 7.00728C19.6171 4.72857 17.193 0.826433 10.0064 0.722183C8.14721 0.748903 6.60635 1.03023 5.33057 1.47184C6.77732 0.805359 8.62962 0.357719 10.9999 0.323242C18.1866 0.427923 20.6106 4.33006 21.4144 6.60834C21.691 7.39372 21.115 8.21837 20.2846 8.21837Z" fill="#FE860A"/>
<path d="M20.2365 17.0732L20.3344 17.053L20.3179 16.9732H20.2365H11.0004H1.76427H1.68281L1.66634 17.053L1.76427 17.0732C1.66634 17.053 1.66632 17.0531 1.66631 17.0532L1.66626 17.0534L1.66613 17.054L1.6657 17.0562L1.66425 17.0638C1.66303 17.0703 1.66134 17.0797 1.65934 17.0919C1.65533 17.1162 1.65004 17.1514 1.64468 17.1963C1.63397 17.2862 1.62296 17.4151 1.62138 17.5733C1.61823 17.8893 1.6527 18.3239 1.80361 18.7979C2.107 19.7508 2.87728 20.8498 4.72053 21.4669L4.75228 21.3721L4.72053 21.4669C5.35255 21.6785 6.01162 21.7768 6.67165 21.7768H11.0004H15.329C15.9891 21.7768 16.6481 21.6785 17.2802 21.4669L17.2484 21.3721L17.2802 21.4669C19.1234 20.8498 19.8937 19.7508 20.1971 18.7979C20.348 18.3239 20.3825 17.8893 20.3793 17.5733C20.3778 17.4151 20.3668 17.2862 20.356 17.1963C20.3507 17.1514 20.3454 17.1162 20.3414 17.0919C20.3394 17.0797 20.3377 17.0703 20.3365 17.0638L20.335 17.0562L20.3346 17.054L20.3345 17.0534L20.3344 17.0532C20.3344 17.0531 20.3344 17.053 20.2365 17.0732Z" fill="#FE9738" stroke="#C76603" stroke-width="0.2"/>
<path d="M17.248 21.3722C16.6268 21.5803 15.9786 21.6773 15.3287 21.6773H14.3501C15.0005 21.6773 15.6487 21.5803 16.2698 21.3722C19.8945 20.1586 19.2574 17.0737 19.2574 17.0737H20.236C20.236 17.0737 20.8731 20.1586 17.248 21.3722V21.3722Z" fill="#FE860A"/>
<path d="M1.62119 12.6637H1.72119H20.2702H20.3702V12.7637V14.4724V14.5724H20.3653C20.2919 15.3146 19.4088 15.6947 18.8141 15.2045L18.8768 15.1284L18.8141 15.2045C18.5985 15.0268 18.3503 14.8896 17.9513 14.8896C17.6758 14.8896 17.4732 14.944 17.306 15.0238C17.1366 15.1045 17.0001 15.2125 16.8542 15.3284L16.8509 15.331C16.7079 15.4446 16.5555 15.5657 16.364 15.657C16.169 15.7499 15.9369 15.8106 15.6327 15.8106C15.3284 15.8106 15.0963 15.7499 14.9013 15.657C14.7098 15.5657 14.5574 15.4446 14.4144 15.331L14.4111 15.3284C14.2652 15.2125 14.1287 15.1045 13.9593 15.0238C13.7921 14.944 13.5895 14.8896 13.314 14.8896C13.0386 14.8896 12.836 14.944 12.6688 15.0238C12.4994 15.1045 12.3629 15.2125 12.217 15.3284L12.2137 15.331C12.0707 15.4446 11.9183 15.5657 11.7268 15.657C11.5318 15.7499 11.2997 15.8106 10.9955 15.8106C10.6913 15.8106 10.4591 15.7499 10.2641 15.657C10.0727 15.5657 9.92028 15.4446 9.77732 15.331L9.77402 15.3284C9.62812 15.2125 9.49162 15.1045 9.32225 15.0238C9.15499 14.944 8.95238 14.8896 8.67697 14.8896C8.40154 14.8896 8.19892 14.944 8.03164 15.0238C7.86226 15.1045 7.72575 15.2125 7.57984 15.3284L7.57654 15.331C7.43357 15.4446 7.28113 15.5657 7.0897 15.657C6.89469 15.7499 6.66256 15.8106 6.35834 15.8106C6.05412 15.8106 5.822 15.7499 5.627 15.657C5.43557 15.5657 5.28314 15.4446 5.14018 15.331L5.13687 15.3284C4.99097 15.2125 4.85446 15.1045 4.68509 15.0238C4.51782 14.944 4.31521 14.8896 4.03979 14.8896C3.64091 14.8896 3.39277 15.0268 3.17732 15.2043M1.62119 12.6637L3.17732 15.2043M1.62119 12.6637V12.7637M1.62119 12.6637V12.7637M3.17732 15.2043C2.55641 15.7161 1.62119 15.2794 1.62119 14.4723V12.7637M3.17732 15.2043L1.62119 12.7637" fill="#BBEC6C" stroke="#85C81A" stroke-width="0.2"/>
<path d="M20.2704 12.7637V14.4724C20.2704 15.148 19.538 15.534 18.9885 15.2052C19.2312 15.0631 19.4056 14.8024 19.4056 14.4724V12.7637H20.2704Z" fill="#A2E62E"/>
<path d="M1.72998 11.2945H1.62998V11.3945V12.7763V12.8763H1.72998H3.71853C4.07672 12.8763 4.36756 13.1676 4.36756 13.5275V17.5071C4.36756 18.0925 4.8408 18.5676 5.42521 18.5676C6.00962 18.5676 6.48285 18.0925 6.48285 17.5071V13.5275C6.48285 13.1676 6.77373 12.8763 7.13188 12.8763H20.2697H20.3697V12.7763V11.3945V11.2945H20.2697H1.72998Z" fill="#FEE45A" stroke="#E5CF08" stroke-width="0.2"/>
<path d="M19.4055 11.3945H20.2702V12.7762H19.4055V11.3945Z" fill="#FEDF30"/>
<path d="M8.02774 3.64552C8.14226 3.64552 8.2532 3.58411 8.31147 3.47594L8.59094 2.95728C8.67554 2.80028 8.61723 2.60424 8.4607 2.51938C8.30403 2.43452 8.10865 2.49309 8.02409 2.65L7.74462 3.16867C7.66002 3.32566 7.71833 3.52175 7.87486 3.60656C7.92355 3.63298 7.97597 3.64552 8.02774 3.64552Z" fill="#D16A00"/>
<path d="M11.3182 3.35751V2.76796C11.3182 2.5895 11.1739 2.44482 10.996 2.44482C10.8181 2.44482 10.6738 2.5895 10.6738 2.76796V3.35751C10.6738 3.53598 10.8181 3.68065 10.996 3.68065C11.1739 3.68065 11.3182 3.53598 11.3182 3.35751Z" fill="#D16A00"/>
<path d="M13.9722 3.64073C14.027 3.64073 14.0826 3.62664 14.1335 3.59707C14.2874 3.50752 14.3399 3.30979 14.2506 3.15542L13.9557 2.64542C13.8664 2.49105 13.6692 2.43852 13.5153 2.52803C13.3614 2.61758 13.309 2.81531 13.3983 2.96968L13.6932 3.47968C13.7529 3.58298 13.8611 3.64073 13.9722 3.64073V3.64073Z" fill="#D16A00"/>
</svg>
